<svg xmlns="http://www.w3.org/2000/svg" width="200" height="114" fill="none"><path fill="#fff" d="M97.744 102.038c9.423 0 17.062-2.823 17.062-6.306 0-3.482-7.639-6.305-17.062-6.305-9.423 0-17.061 2.823-17.061 6.305 0 3.483 7.638 6.306 17.061 6.306Z"/><path fill="url(#a)" d="M97.744 102.038c9.423 0 17.062-2.823 17.062-6.306 0-3.482-7.639-6.305-17.062-6.305-9.423 0-17.061 2.823-17.061 6.305 0 3.483 7.638 6.306 17.061 6.306Z"/><path fill="#fff" d="M98.26 93.394c13.81 0 25.005-11.196 25.005-25.006S112.07 43.383 98.26 43.383c-13.81 0-25.006 11.195-25.006 25.005 0 13.81 11.195 25.005 25.005 25.005Z"/><path fill="url(#b)" d="M98.26 93.394c13.81 0 25.005-11.196 25.005-25.006S112.07 43.383 98.26 43.383c-13.81 0-25.006 11.195-25.006 25.005 0 13.81 11.195 25.005 25.005 25.005Z"/><g filter="url(#c)"><circle cx="98.939" cy="56.939" r="7.727" fill="#DDA5FF"/></g><path stroke="#005DCE" stroke-linecap="round" stroke-linejoin="round" stroke-width="2.061" d="M98.26 93.394c13.81 0 25.005-11.196 25.005-25.006S112.07 43.383 98.26 43.383c-13.81 0-25.006 11.195-25.006 25.005 0 13.81 11.195 25.005 25.005 25.005Z"/><path fill="#fff" fill-opacity=".7" d="M88 58h20v20H88z"/><path fill="#005DCD" stroke="#005DCD" stroke-linejoin="round" stroke-width=".75" d="M111.7 67.03c.3 0 .54-.24.54-.54 0-.3-.24-.54-.54-.54h-2.72v-2.17h2.72c.3 0 .54-.24.54-.54 0-.3-.24-.54-.54-.54h-2.72v-3.26c0-1.2-.97-2.17-2.17-2.17h-3.26v-2.73c0-.3-.24-.54-.54-.54-.3 0-.54.24-.54.54v2.72h-2.17v-2.72c0-.3-.24-.54-.54-.54-.3 0-.54.24-.54.54v2.72h-2.17v-2.72c0-.3-.24-.54-.54-.54-.3 0-.54.24-.54.54v2.72H93.8v-2.72c0-.3-.24-.54-.54-.54-.3 0-.54.24-.54.54v2.72h-3.26c-1.2 0-2.17.97-2.17 2.17v3.26h-2.75c-.3 0-.54.24-.54.54 0 .3.24.54.54.54h2.72v2.17h-2.72c-.3 0-.54.24-.54.54 0 .3.24.54.54.54h2.72v2.17h-2.72c-.3 0-.54.24-.54.54 0 .3.24.54.54.54h2.72v2.17h-2.72c-.3 0-.54.24-.54.54 0 .3.24.54.54.54h2.72v3.26c0 1.2.97 2.17 2.17 2.17h3.26v2.72c0 .3.24.54.54.54.3 0 .54-.24.54-.54v-2.72h2.17v2.72c0 .3.24.54.54.54.3 0 .54-.24.54-.54v-2.72h2.17v2.72c0 .3.24.54.54.54.3 0 .54-.24.54-.54v-2.72h2.17v2.72c0 .3.24.54.54.54.3 0 .54-.24.54-.54v-2.72h3.26c1.2 0 2.17-.97 2.17-2.17v-3.26h2.72c.3 0 .54-.24.54-.54 0-.3-.24-.54-.54-.54h-2.72v-2.17h2.72c.3 0 .54-.24.54-.54 0-.3-.24-.54-.54-.54h-2.72v-2.17h2.72l.03.01Zm-3.8 9.78c0 .6-.49 1.09-1.09 1.09H89.43c-.6 0-1.09-.49-1.09-1.09V59.43c0-.6.49-1.09 1.09-1.09h17.39c.6 0 1.09.49 1.09 1.09v17.39l-.01-.01Z"/><path fill="#005DCD" d="M96.978 63.974a.74.74 0 0 0-.698-.474.76.76 0 0 0-.698.474l-3.028 7.578a.766.766 0 0 0 .419.99.766.766 0 0 0 .99-.418l.726-1.8h3.224l.725 1.8a.754.754 0 0 0 .698.474.624.624 0 0 0 .28-.055c.39-.154.571-.6.418-.991l-3.028-7.578h-.028Zm-1.703 4.829 1.005-2.512 1.005 2.512h-2.01ZM102.336 63.5a.75.75 0 0 0-.753.754v7.577a.75.75 0 0 0 .753.753.75.75 0 0 0 .754-.753v-7.578a.75.75 0 0 0-.754-.753Z"/><path stroke="#005DCE" stroke-linecap="round" stroke-linejoin="round" stroke-width="2.061" d="M97.651 32.327c20.916 0 25.83-10.251 40.965-14.424 9.067-2.504 17.443 2.978 17.443 2.978M159.933 17.975c1.867 0 3.38-.53 3.38-1.185 0-.654-1.513-1.184-3.38-1.184-1.866 0-3.379.53-3.379 1.184 0 .655 1.513 1.185 3.379 1.185Z"/><path stroke="#005DCE" stroke-linecap="round" stroke-linejoin="round" stroke-width="2.061" d="M156.554 16.79v10.52c0 .649 1.514 1.184 3.379 1.184s3.38-.525 3.38-1.184V16.79h-6.759ZM97.693 32.327c-20.915 0-25.83-10.251-40.965-14.424-9.067-2.504-17.443 2.978-17.443 2.978M35.411 17.975c1.866 0 3.38-.53 3.38-1.185 0-.654-1.514-1.184-3.38-1.184-1.866 0-3.38.53-3.38 1.184 0 .655 1.514 1.185 3.38 1.185Z"/><path stroke="#005DCE" stroke-linecap="round" stroke-linejoin="round" stroke-width="2.061" d="M32.032 16.79v10.52c0 .649 1.514 1.184 3.379 1.184s3.38-.525 3.38-1.184V16.79h-6.76Z"/><path fill="#fff" stroke="#005DCE" stroke-linecap="round" stroke-linejoin="round" stroke-width="2.061" d="M102.154 22.807h-6.759v20.565h6.759V22.807ZM40.449 88.025v4.894c0 2.06 3.606 3.74 8.047 3.74 4.44 0 8.046-1.669 8.046-3.74v-4.894H40.44h.01Z"/><path fill="#fff" stroke="#005DCE" stroke-linecap="round" stroke-linejoin="round" stroke-width="2.061" d="M48.496 91.92c4.444 0 8.046-1.674 8.046-3.74 0-2.066-3.602-3.74-8.046-3.74-4.444 0-8.047 1.674-8.047 3.74 0 2.066 3.603 3.74 8.047 3.74Z"/><path fill="#fff" stroke="#005DCE" stroke-linecap="round" stroke-linejoin="round" stroke-width="2.061" d="M40.449 83.286v4.894c0 2.06 3.606 3.74 8.047 3.74 4.44 0 8.046-1.669 8.046-3.74v-4.894H40.44h.01Z"/><path fill="#fff" stroke="#005DCE" stroke-linecap="round" stroke-linejoin="round" stroke-width="2.061" d="M48.496 87.19c4.444 0 8.046-1.674 8.046-3.74 0-2.065-3.602-3.74-8.046-3.74-4.444 0-8.047 1.675-8.047 3.74 0 2.066 3.603 3.74 8.047 3.74ZM16 88.025v4.894c0 2.06 3.606 3.74 8.047 3.74 4.44 0 8.046-1.669 8.046-3.74v-4.894H16Z"/><path fill="#fff" stroke="#005DCE" stroke-linecap="round" stroke-linejoin="round" stroke-width="2.061" d="M24.047 91.92c4.444 0 8.046-1.674 8.046-3.74 0-2.066-3.602-3.74-8.046-3.74-4.444 0-8.047 1.674-8.047 3.74 0 2.066 3.603 3.74 8.047 3.74Z"/><path fill="#fff" stroke="#005DCE" stroke-linecap="round" stroke-linejoin="round" stroke-width="2.061" d="M16 83.286v4.894c0 2.06 3.606 3.74 8.047 3.74 4.44 0 8.046-1.669 8.046-3.74v-4.894H16Z"/><path fill="#fff" stroke="#005DCE" stroke-linecap="round" stroke-linejoin="round" stroke-width="2.061" d="M24.047 87.19c4.444 0 8.046-1.674 8.046-3.74 0-2.065-3.602-3.74-8.046-3.74-4.444 0-8.047 1.675-8.047 3.74 0 2.066 3.603 3.74 8.047 3.74Z"/><path fill="#fff" stroke="#005DCE" stroke-linecap="round" stroke-linejoin="round" stroke-width="2.061" d="M16 78.557v4.894c0 2.06 3.606 3.74 8.047 3.74 4.44 0 8.046-1.67 8.046-3.74v-4.894H16Z"/><path fill="#fff" stroke="#005DCE" stroke-linecap="round" stroke-linejoin="round" stroke-width="2.061" d="M24.047 82.451c4.444 0 8.046-1.674 8.046-3.74 0-2.065-3.602-3.74-8.046-3.74-4.444 0-8.047 1.675-8.047 3.74 0 2.066 3.603 3.74 8.047 3.74ZM162.901 88.025v4.894c0 2.06 3.606 3.74 8.046 3.74 4.441 0 8.047-1.669 8.047-3.74v-4.894H162.89h.011Z"/><path fill="#fff" stroke="#005DCE" stroke-linecap="round" stroke-linejoin="round" stroke-width="2.061" d="M170.947 91.92c4.444 0 8.047-1.674 8.047-3.74 0-2.066-3.603-3.74-8.047-3.74-4.444 0-8.046 1.674-8.046 3.74 0 2.066 3.602 3.74 8.046 3.74Z"/><path fill="#fff" stroke="#005DCE" stroke-linecap="round" stroke-linejoin="round" stroke-width="2.061" d="M167.537 80.968v4.894c0 2.06 3.606 3.74 8.047 3.74 4.44 0 8.046-1.67 8.046-3.74v-4.894h-16.103.01Z"/><path fill="#fff" stroke="#005DCE" stroke-linecap="round" stroke-linejoin="round" stroke-width="2.061" d="M175.584 84.873c4.444 0 8.046-1.675 8.046-3.74 0-2.066-3.602-3.74-8.046-3.74-4.444 0-8.047 1.674-8.047 3.74 0 2.065 3.603 3.74 8.047 3.74ZM140.77 88.025v4.894c0 2.06 3.606 3.74 8.046 3.74 4.441 0 8.047-1.669 8.047-3.74v-4.894H140.76h.01Z"/><path fill="#fff" stroke="#005DCE" stroke-linecap="round" stroke-linejoin="round" stroke-width="2.061" d="M148.816 91.92c4.444 0 8.047-1.674 8.047-3.74 0-2.066-3.603-3.74-8.047-3.74-4.444 0-8.046 1.674-8.046 3.74 0 2.066 3.602 3.74 8.046 3.74Z"/><path fill="#D6EAFF" stroke="#005DCE" stroke-linecap="round" stroke-linejoin="round" stroke-width="2.061" d="M98.775 19.49a4.244 4.244 0 1 0 0-8.49 4.244 4.244 0 0 0 0 8.49Z"/><path fill="#D6EAFF" d="M49.114 52.676c0 7.573-6.14 13.703-13.703 13.703s-13.703-6.14-13.703-13.703"/><path stroke="#005DCE" stroke-linecap="round" stroke-linejoin="round" stroke-width="2.061" d="M49.114 52.676c0 7.573-6.14 13.703-13.703 13.703s-13.703-6.14-13.703-13.703M49.021 52.676c0-5.687-13.61-22.966-13.61-22.966s-13.61 17.279-13.61 22.966"/><path fill="#D6EAFF" stroke="#005DCE" stroke-linecap="round" stroke-linejoin="round" stroke-width="2.061" d="M35.41 56.066c7.569 0 13.704-1.518 13.704-3.39s-6.135-3.39-13.703-3.39-13.703 1.518-13.703 3.39 6.135 3.39 13.703 3.39Z"/><path stroke="#005DCE" stroke-linecap="round" stroke-linejoin="round" stroke-width="2.061" d="M35.41 29.71v26.356"/><path fill="#D6EAFF" d="M173.729 52.676c0 7.573-6.141 13.703-13.703 13.703-7.562 0-13.703-6.14-13.703-13.703"/><path stroke="#005DCE" stroke-linecap="round" stroke-linejoin="round" stroke-width="2.061" d="M173.729 52.676c0 7.573-6.141 13.703-13.703 13.703-7.562 0-13.703-6.14-13.703-13.703M173.626 52.676c0-5.687-13.61-22.966-13.61-22.966s-13.611 17.279-13.611 22.966"/><path fill="#D6EAFF" stroke="#005DCE" stroke-linecap="round" stroke-linejoin="round" stroke-width="2.061" d="M160.026 56.066c7.568 0 13.703-1.518 13.703-3.39s-6.135-3.39-13.703-3.39-13.703 1.518-13.703 3.39 6.135 3.39 13.703 3.39Z"/><path stroke="#005DCE" stroke-linecap="round" stroke-linejoin="round" stroke-width="2.061" d="M160.026 29.71v26.356M98.775 22.807V19.48"/><defs><linearGradient id="a" x1="98.939" x2="98.939" y1="90.684" y2="102.017" gradientUnits="userSpaceOnUse"><stop stop-color="#227CE8" stop-opacity=".3"/><stop offset=".95" stop-color="#227CE8" stop-opacity=".1"/></linearGradient><linearGradient id="b" x1="98.26" x2="98.26" y1="43.383" y2="93.394" gradientUnits="userSpaceOnUse"><stop stop-color="#227CE8" stop-opacity=".1"/><stop offset="1" stop-color="#227CE8" stop-opacity=".3"/></linearGradient><filter id="c" width="77.273" height="77.273" x="60.303" y="18.303" color-interpolation-filters="sRGB" filterUnits="userSpaceOnUse"><feFlood flood-opacity="0" result="BackgroundImageFix"/><feBlend in="SourceGraphic" in2="BackgroundImageFix" result="shape"/><feGaussianBlur result="effect1_foregroundBlur_3816_7537" stdDeviation="15.454"/></filter></defs></svg>