<svg xmlns="http://www.w3.org/2000/svg" width="18.257" height="17.27">
  <g stroke="#fff">
    <path d="M11.708 8.334H.501a.3.3 0 1 0 0 .6h11.206a.3.3 0 1 0 0-.6Z" fill="#fff" stroke-width=".4"/>
    <g fill="#fff" stroke-width=".4">
      <path d="m11.939 8.423-4.045 4.045a.301.301 0 0 0 .426.426l4.045-4.045a.301.301 0 0 0-.426-.426Z"/>
      <path d="M12.365 8.423 8.32 4.378a.301.301 0 1 0-.426.426l4.045 4.045a.301.301 0 0 0 .426-.426Z"/>
    </g>
    <path d="M3.319 3.657a8.035 8.035 0 1 1 0 9.957" fill="none" stroke-linecap="round" stroke-miterlimit="10" stroke-width="1.2"/>
  </g>
</svg>
