<svg xmlns="http://www.w3.org/2000/svg" width="200" height="114" fill="none"><path fill="#fff" d="m130.792 41.353-27.074-15.635-27.087 15.635v31.27l27.087 15.634 27.074-15.634v-31.27Z"/><path fill="url(#a)" d="m130.792 41.353-27.074-15.635-27.087 15.635v31.27l27.087 15.634 27.074-15.634v-31.27Z"/><path stroke="#005FCC" stroke-linejoin="round" stroke-width="2" d="m130.792 41.353-27.074-15.635-27.087 15.635v31.27l27.087 15.634 27.074-15.634v-31.27Z"/><g filter="url(#b)"><circle cx="104" cy="71" r="7" fill="#DDA5FF"/></g><path stroke="#fff" stroke-dasharray="1 1" stroke-linejoin="round" d="M120.884 47.079H86.482l17.201 29.785 17.201-29.785Z"/><path stroke="#fff" stroke-dasharray="1 1" stroke-linejoin="round" d="m103.718 25.718 17.165 21.36 9.909 25.545-27.109 4.241-27.052-4.241 9.851-25.544 17.236-21.361ZM76.631 41.353l9.851 5.726M103.718 88.257l-.035-11.393M130.793 41.353l-9.909 5.726"/><path stroke="#005DCD" stroke-linecap="round" stroke-linejoin="round" stroke-width="2" d="m103.717 37.157-17.2 29.798h34.389l-17.189-29.798Z"/><path stroke="#005DCD" stroke-linecap="round" stroke-linejoin="round" stroke-width="2" d="m76.631 41.352 27.087-4.195 27.074 4.195-9.885 25.603-17.189 21.302-17.2-21.302-9.887-25.603ZM76.631 72.623l9.886-5.667M130.793 72.623l-9.885-5.667M103.717 25.718v11.44"/><path stroke="#005DCD" stroke-linecap="round" stroke-linejoin="round" stroke-width="2" d="M82.66 100.783C59.98 90.01 49.078 63.391 58.25 39.565c8.81-22.88 33.07-35.267 56.288-29.833"/><path fill="#005DCD" d="m111.909 13.963 9.045-2.244L114.492 5l-2.583 8.963Z"/><path stroke="#005DCD" stroke-linecap="round" stroke-linejoin="round" stroke-width="2" d="M123.852 12.947c23.055 10.61 34.191 37.45 24.948 61.476-8.811 22.88-33.069 35.266-56.276 29.82"/><path fill="#005DCD" d="m95.153 100.013-9.045 2.243 6.462 6.719 2.583-8.962Z"/><path stroke="#005DCD" stroke-dasharray="1 1" stroke-linejoin="round" d="M63.063 53.856c1.601-20.951 19.106-37.45 40.466-37.45 21.361 0 38.737 16.382 40.443 37.228"/><path fill="#005DCD" d="m141.577 53.073 2.536 3.915 2.115-4.149-4.651.234Z"/><path stroke="#005DCD" stroke-dasharray="1 1" stroke-linejoin="round" d="M144.02 59.617c-1.355 21.185-18.965 37.953-40.501 37.953-21.536 0-38.737-16.382-40.443-37.229"/><path fill="#005DCD" d="m65.484 60.902-2.535-3.915-2.127 4.149 4.662-.234Z"/><path stroke="#005DCD" stroke-miterlimit="10" stroke-width="2" d="M23.61 30.06c1.66 0 3-1.34 3-3 0-.75-.28-1.44-.73-1.96a2.976 2.976 0 0 0-2.27-1.04c-1.66 0-3 1.34-3 3s1.34 3 3 3ZM46.51 39.93h-22.9v-9.49M10 52.4c1.66 0 3-1.34 3-3 0-.75-.28-1.44-.73-1.96A2.976 2.976 0 0 0 10 46.4c-1.66 0-3 1.34-3 3s1.34 3 3 3ZM46.51 49.4H13M31.61 62.88c1.66 0 3-1.34 3-3 0-.75-.28-1.44-.73-1.96a2.976 2.976 0 0 0-2.27-1.04c-1.66 0-3 1.34-3 3s1.34 3 3 3ZM46.51 59.88h-11.9M27.5 86c1.66 0 3-1.34 3-3 0-.75-.28-1.44-.73-1.96A2.976 2.976 0 0 0 27.5 80c-1.66 0-3 1.34-3 3s1.34 3 3 3Z"/><path stroke="#005DCD" stroke-miterlimit="10" stroke-width="2" d="M46.51 70.36h-18.9V80M189.99 78.53c-1.66 0-3 1.34-3 3 0 .75.28 1.44.73 1.96.55.64 1.36 1.04 2.27 1.04 1.66 0 3-1.34 3-3s-1.34-3-3-3ZM161.09 68.67h28.9v9.49M174.59 56.19c-1.66 0-3 1.34-3 3 0 .75.28 1.44.73 1.96.55.64 1.36 1.04 2.27 1.04 1.66 0 3-1.34 3-3s-1.34-3-3-3ZM161.09 59.19h10.5M189.99 45.71c-1.66 0-3 1.34-3 3 0 .75.28 1.44.73 1.96.55.64 1.36 1.04 2.27 1.04 1.66 0 3-1.34 3-3s-1.34-3-3-3ZM161.09 48.71h25.9M174.99 24.06c-1.66 0-3 1.34-3 3 0 .75.28 1.44.73 1.96.55.64 1.36 1.04 2.27 1.04 1.66 0 3-1.34 3-3s-1.34-3-3-3Z"/><path stroke="#005DCD" stroke-miterlimit="10" stroke-width="2" d="M161.09 38.23h13.9v-8.17"/><defs><linearGradient id="a" x1="103.712" x2="103.712" y1="87.965" y2="26.034" gradientUnits="userSpaceOnUse"><stop stop-color="#227CE8" stop-opacity=".1"/><stop offset="1" stop-color="#227CE8" stop-opacity=".3"/></linearGradient><filter id="b" width="75.818" height="75.818" x="66.091" y="33.091" color-interpolation-filters="sRGB" filterUnits="userSpaceOnUse"><feFlood flood-opacity="0" result="BackgroundImageFix"/><feBlend in="SourceGraphic" in2="BackgroundImageFix" result="shape"/><feGaussianBlur result="effect1_foregroundBlur_3820_9093" stdDeviation="15.454"/></filter></defs></svg>