<svg xmlns="http://www.w3.org/2000/svg" width="100" height="89" fill="none"><path stroke="#676B74" stroke-linecap="round" stroke-linejoin="round" stroke-width="2" d="M40.333 35.658a9.61 9.61 0 0 1-1.38-4.952 9.649 9.649 0 0 1 9.656-9.655c8.276 0 9.655 5.517 15.173 5.517 0 2.759-2.759 8.276-8.276 8.276-6.897 0-9.656-5.517-15.173.814Z"/><path stroke="#676B74" stroke-linecap="round" stroke-linejoin="round" stroke-width="2" d="M40.333 35.658v4.704a9.649 9.649 0 0 0 9.655 9.656 9.649 9.649 0 0 0 9.656-9.656v-6.745M59.644 51.397l6.855 2.745a11.03 11.03 0 0 1 6.939 10.249v7.697a4.133 4.133 0 0 1-4.139 4.138H30.677a4.133 4.133 0 0 1-4.138-4.138V64.39c0-4.51 2.745-8.566 6.938-10.25l6.856-2.744M32.746 43.314c-1.104 2.33-3.462 3.945-6.207 3.945-2.745 0-5.104-1.614-6.208-3.945"/><path stroke="#676B74" stroke-linecap="round" stroke-linejoin="round" stroke-width="2" d="m43.353 47.37-3.02 4.027 5.158 4.856 4.497-4.856 4.497 4.856 5.159-4.856-3.021-4.028M23.49 39.769a6.898 6.898 0 0 1-4.896 4.193l-4.277.952A5.517 5.517 0 0 0 10 50.294v10.745a4.133 4.133 0 0 0 4.138 4.138h6.897M65.272 42.734c1.71 2.718 4.731 4.525 8.166 4.525 3.434 0 6.455-1.807 8.165-4.525"/><path stroke="#676B74" stroke-linecap="round" stroke-linejoin="round" stroke-width="2" d="M78.955 65.19h6.897a4.133 4.133 0 0 0 4.138-4.137V50.666c0-2.87-1.78-5.449-4.47-6.456l-3.875-1.448a4.148 4.148 0 0 1-2.69-3.876v-.635M34.815 67.95v8.276M65.161 67.95v8.276M64.94 42.858l.304-.11a4.148 4.148 0 0 0 2.69-3.876v-.635M29.587 39.769a6.898 6.898 0 0 0 4.897 4.193l.827.18M67.92 22.43c4.138 0 4.91 2.759 11.035 2.759 4.91 0 6.897-5.063 6.897-7.504-4.91 0-6.125-4.91-13.49-4.91-7.366 0-9.242 5.158-9.766 7.93"/><path stroke="#676B74" stroke-linecap="round" stroke-linejoin="round" stroke-width="2" d="M65.865 35.41c1.283 2.91 4.193 4.952 7.573 4.952 4.565 0 8.276-3.71 8.276-8.276v-7.504M33.712 27.837c-3.284-.524-5.794-3.352-5.794-6.786 0 3.807-4.317 6.897-9.655 6.897v4.138c0 4.566 3.71 8.276 8.276 8.276 3.434 0 6.386-2.097 7.641-5.09"/><path stroke="#676B74" stroke-linecap="round" stroke-linejoin="round" stroke-width="2" d="M38.388 19.533c-2.4-4.041-6.8-6.759-11.85-6.759-7.613 0-13.793 6.18-13.793 13.794v18.98"/></svg>