<svg xmlns="http://www.w3.org/2000/svg" viewBox="0 0 214 150"><defs><style>.cls-1{fill:none;}.cls-2{fill:#fff;}</style></defs><g id="レイヤー_2" data-name="レイヤー 2"><g id="PC用"><g id="icon03"><rect class="cls-1" width="214" height="150"/><path class="cls-2" d="M152.54,66.18a15.15,15.15,0,1,0-19.79-21.13,49.83,49.83,0,0,0-8.25-2.34,9.62,9.62,0,0,0-7.41-15.78c-.34,0-.69,0-1,.05l-.33.05-.67.11-.37.1-.59.16-.38.14-.54.22-.37.18-.5.26-.35.21-.47.32-.32.24-.45.37-.28.26A5.66,5.66,0,0,0,110,30c-.06.06-.12.11-.17.17l-.21-.21c-.12-.13-.23-.25-.36-.37l-.33-.3a4.12,4.12,0,0,0-.4-.33l-.36-.27-.44-.3-.37-.22-.48-.26c-.13-.06-.26-.13-.39-.18s-.35-.15-.52-.21l-.4-.15-.57-.16-.38-.1L104,27l-.33-.05c-.34,0-.68-.05-1-.05a9.62,9.62,0,0,0-7.41,15.78c-9.49,1.87-16.8,5.73-21.81,11.55-6.55,7.61-8.92,18.41-7.08,32.09-3.77,4.11-7,10-7,20.24,0,19,20.29,31.77,50.49,31.77s50.49-12.77,50.49-31.77c0-10.28-3.19-16.13-7-20.24C154.42,78.71,154.13,72,152.54,66.18ZM121.93,36.56a4.84,4.84,0,1,1-4.84-4.83A4.84,4.84,0,0,1,121.93,36.56Zm-19.3-4.83a4.66,4.66,0,0,1,1.87.38,4.83,4.83,0,1,1-1.87-.38ZM77,57.4c6.4-7.43,17.44-11.2,32.82-11.2S136.28,50,142.67,57.4c5.08,5.9,7.21,14.26,6.34,24.89l-.88-.73a30.48,30.48,0,0,1-4.25-3.94,20,20,0,0,1-2.42-5c-3-7.62-7.46-19.13-31.6-19.13S81.23,65,78.26,72.63a20.17,20.17,0,0,1-2.42,5,31.06,31.06,0,0,1-4.25,3.94l-.89.73C69.84,71.66,72,63.3,77,57.4Zm32.82,76.16c-27.33,0-45.69-10.84-45.69-27,0-12.71,5.32-17.09,10.47-21.33a32.94,32.94,0,0,0,4.92-4.62,23.18,23.18,0,0,0,3.17-6.27C85.52,67.21,89,58.3,109.86,58.3S134.2,67.21,137,74.38a23.54,23.54,0,0,0,3.16,6.26,33.52,33.52,0,0,0,4.93,4.62,54.52,54.52,0,0,1,4.14,3.68l0,0c3.5,3.58,6.31,8.41,6.31,17.63C155.55,122.72,137.19,133.56,109.86,133.56Z"/><circle class="cls-2" cx="68.11" cy="26.8" r="15.16" transform="translate(17.29 79.47) rotate(-67.5)"/></g></g></g></svg>