<svg xmlns="http://www.w3.org/2000/svg" viewBox="0 0 214 150"><defs><style>.cls-1{fill:none;}.cls-2{fill:#fff;}</style></defs><g id="レイヤー_2" data-name="レイヤー 2"><g id="PC用"><g id="ico_btn8"><rect class="cls-1" width="214" height="150"/><g id="icon05_2"><path class="cls-2" d="M40,80.28,146.72,26.36l4.06,7a1.87,1.87,0,0,0,3.34-.21L165,7.27a1.86,1.86,0,0,0-1.48-2.57L135.62,1.08a1.86,1.86,0,0,0-1.86,2.78l4.06,7.05L37.66,76.14A2.39,2.39,0,0,0,40,80.28Z"/><path class="cls-2" d="M165.53,53a41.81,41.81,0,0,0-5.31-1.83c-.95-.26-1.93-.5-2.93-.71A63.75,63.75,0,0,0,144,49.17c-17.85,0-31.58,6.57-33.22,15.55a10.13,10.13,0,0,0-.17,1.83V77.38h0V88.22h0V99.06h0v10.83h0v10.84h0v10.84c0,9.9,14.35,17.37,33.39,17.37s33.39-7.47,33.39-17.37v-65C177.43,61,172.89,56.17,165.53,53Zm5.67,78.53c0,5.26-11.62,11.14-27.16,11.14s-27.16-5.88-27.16-11.14v-.51c6,4.32,15.7,7,27.16,7s21.2-2.72,27.16-7Zm0-10.84c0,5.26-11.62,11.14-27.16,11.14s-27.16-5.88-27.16-11.14v-.5c6,4.31,15.7,7,27.16,7s21.2-2.72,27.16-7Zm0-10.84c0,5.26-11.62,11.14-27.16,11.14s-27.16-5.88-27.16-11.14v-.5c6,4.32,15.7,7,27.16,7s21.2-2.72,27.16-7Zm0-10.83c0,5.25-11.62,11.14-27.16,11.14s-27.16-5.89-27.16-11.14v-.51c6,4.32,15.7,7,27.16,7s21.2-2.72,27.16-7Zm0-10.84c0,5.26-11.62,11.14-27.16,11.14s-27.16-5.88-27.16-11.14v-.51c6,4.32,15.7,7,27.16,7s21.2-2.72,27.16-7Zm0-10.84c0,5.26-11.62,11.14-27.16,11.14s-27.16-5.88-27.16-11.14v-.5c6,4.32,15.7,7,27.16,7s21.2-2.72,27.16-7Zm-27.16.3c-15.54,0-27.16-5.88-27.16-11.14S128.5,55.41,144,55.41s27.16,5.88,27.16,11.13S159.58,77.68,144,77.68Z"/><path class="cls-2" d="M96.52,87.88a31.2,31.2,0,0,0-4.47-2.33c-.82-.35-1.67-.67-2.56-1a50.17,50.17,0,0,0-8.78-2.13,69.06,69.06,0,0,0-20.3,0C46.65,84.57,37.17,91,37.17,99.06h0v32.51c0,9.9,14.36,17.37,33.39,17.37S104,141.47,104,131.57V99.06h0a11,11,0,0,0-2.54-6.89A19.36,19.36,0,0,0,96.52,87.88Zm1.2,43.69c0,5.26-11.61,11.14-27.16,11.14s-27.15-5.88-27.15-11.14v-.51c6,4.32,15.69,7,27.15,7s21.21-2.72,27.16-7Zm0-10.84c0,5.26-11.61,11.14-27.16,11.14S43.41,126,43.41,120.73v-.5c6,4.32,15.69,7,27.15,7s21.21-2.72,27.16-7Zm0-10.84c0,5.26-11.61,11.14-27.16,11.14s-27.15-5.88-27.15-11.14v-.5c6,4.32,15.69,7,27.15,7s21.21-2.72,27.16-7Zm-27.16.31c-15.54,0-27.15-5.88-27.15-11.14S55,87.92,70.56,87.92,97.72,93.8,97.72,99.06,86.11,110.2,70.56,110.2Z"/></g></g></g></g></svg>