<?xml version="1.0" encoding="utf-8"?>
<!-- Generator: Adobe Illustrator 26.2.1, SVG Export Plug-In . SVG Version: 6.00 Build 0)  -->
<svg version="1.1" id="レイヤー_1" xmlns="http://www.w3.org/2000/svg" xmlns:xlink="http://www.w3.org/1999/xlink" x="0px"
	 y="0px" viewBox="0 0 214 150" style="enable-background:new 0 0 214 150;" xml:space="preserve">
<style type="text/css">
	.st0{fill:none;}
	.st1{fill:#005BAC;}
	.st2{fill:#EEB019;}
	.st3{fill:#FAD94C;}
</style>
<rect y="0" class="st0" width="214" height="150"/>
<path class="st1" d="M45,80.3l106.7-53.9l4.1,7c0.5,0.9,1.7,1.2,2.6,0.7c0.4-0.2,0.6-0.5,0.8-0.9L170,7.3c0.4-0.9,0-2-1-2.4
	c-0.2-0.1-0.3-0.1-0.5-0.1l-27.9-3.6c-1-0.1-2,0.6-2.1,1.6c-0.1,0.4,0,0.8,0.2,1.2l4.1,7.1L42.7,76.1c-1.1,0.8-1.3,2.3-0.6,3.3
	C42.7,80.4,44,80.7,45,80.3z"/>
<g>
	<path class="st2" d="M96.7,120.3c-6.1-4-15.5-6.5-26-6.5c-10.5,0-19.9,2.6-26,6.5h-7.4v11h0c0,9.7,15,17.5,33.4,17.5
		c18.5,0,33.4-7.9,33.4-17.5v-11H96.7z"/>
	<path class="st3" d="M96.7,109.5c-6.1-4-15.5-6.5-26-6.5c-10.5,0-19.9,2.6-26,6.5h-7.4v11h0c0,9.7,15,17.5,33.4,17.5
		c18.5,0,33.4-7.9,33.4-17.5v-11H96.7z"/>
	<path class="st2" d="M96.7,98.6c-6.1-4-15.5-6.5-26-6.5c-10.5,0-19.9,2.6-26,6.5h-7.4v11h0c0,9.7,15,17.5,33.4,17.5
		c18.5,0,33.4-7.9,33.4-17.5v-11H96.7z"/>
	<ellipse class="st3" cx="70.7" cy="98.9" rx="33.4" ry="17.5"/>
</g>
<g>
	<path class="st3" d="M170,121.7c-6.1-3.8-15.5-6.3-26-6.3c-10.5,0-19.9,2.4-26,6.3h-7.4v10.5h0c0,9.3,15,16.8,33.4,16.8
		c18.5,0,33.4-7.5,33.4-16.8v-10.5H170z"/>
	<path class="st2" d="M170,110.4c-6.1-3.8-15.5-6.3-26-6.3c-10.5,0-19.9,2.4-26,6.3h-7.4v10.5h0c0,9.3,15,16.8,33.4,16.8
		c18.5,0,33.4-7.5,33.4-16.8v-10.5H170z"/>
	<path class="st3" d="M170,99.5c-6.1-3.8-15.5-6.3-26-6.3c-10.5,0-19.9,2.4-26,6.3h-7.4v10.5h0c0,9.3,15,16.8,33.4,16.8
		c18.5,0,33.4-7.5,33.4-16.8V99.5H170z"/>
	<path class="st2" d="M170,88.9c-6.1-3.8-15.5-6.3-26-6.3c-10.5,0-19.9,2.4-26,6.3h-7.4v10.5h0c0,9.3,15,16.8,33.4,16.8
		c18.5,0,33.4-7.5,33.4-16.8V88.9H170z"/>
	<path class="st3" d="M170,78.1c-6.1-3.8-15.5-6.3-26-6.3c-10.5,0-19.9,2.4-26,6.3h-7.4v10.5h0c0,9.3,15,16.8,33.4,16.8
		c18.5,0,33.4-7.5,33.4-16.8V78.1H170z"/>
	<path class="st2" d="M170,67.3c-6.1-3.8-15.5-6.3-26-6.3c-10.5,0-19.9,2.4-26,6.3h-7.4v10.5h0c0,9.3,15,16.8,33.4,16.8
		c18.5,0,33.4-7.5,33.4-16.8V67.3H170z"/>
	<ellipse class="st3" cx="144" cy="66.3" rx="33.4" ry="17.4"/>
</g>
</svg>
