<?xml version="1.0" encoding="utf-8"?>
<!-- Generator: Adobe Illustrator 26.2.1, SVG Export Plug-In . SVG Version: 6.00 Build 0)  -->
<svg version="1.1" id="レイヤー_1" xmlns="http://www.w3.org/2000/svg" xmlns:xlink="http://www.w3.org/1999/xlink" x="0px"
	 y="0px" viewBox="0 0 214 150" style="enable-background:new 0 0 214 150;" xml:space="preserve">
<style type="text/css">
	.st0{fill:none;}
	.st1{fill:#B2CCD3;}
	.st2{fill:#FAD94C;}
	.st3{fill:#005BAC;}
</style>
<rect y="0" class="st0" width="214" height="150"/>
<circle class="st1" cx="116.8" cy="36.3" r="9.5"/>
<circle class="st2" cx="68.1" cy="26.8" r="15.2"/>
<circle class="st2" cx="145.9" cy="52.6" r="15.2"/>
<path class="st1" d="M95.3,42.7c-9.5,1.9-16.8,5.7-21.8,11.5c-6.5,7.6-8.9,18.4-7.1,32.1c-3.8,4.1,90.4,4.1,86.6,0
	c1.8-13.7-0.5-24.5-7.1-32.1c-5-5.8-12.3-9.7-21.8-11.5C107.5,40,95.3,42.7,95.3,42.7z"/>
<g>
	<path class="st3" d="M153,86.3c0,0-2.5-2.2-4.3-4l-0.9-0.7c-1.5-1.2-3-2.5-4.2-3.9c-1-1.5-1.8-3.2-2.4-5c-3-7.6-7.4-19.1-31.4-19.1
		v0c0,0,0,0,0,0s0,0,0,0v0C85.7,53.6,81.2,65,78.3,72.6c-0.6,1.8-1.4,3.5-2.4,5c-1.3,1.4-2.7,2.8-4.2,3.9l-0.9,0.7
		c-1.3,1.3-4.3,4-4.3,4c-3.8,4.1-7,10-7,20.2c0,19,20.2,31.7,50.3,31.8v0c0,0,0,0,0,0s0,0,0,0v0c30.1-0.1,50.3-12.8,50.3-31.8
		C160,96.3,156.7,90.4,153,86.3z"/>
</g>
<circle class="st1" cx="102.5" cy="36.3" r="9.5"/>
</svg>
