<?xml version="1.0" standalone="no"?>
<!DOCTYPE svg PUBLIC "-//W3C//DTD SVG 1.1//EN" "http://www.w3.org/Graphics/SVG/1.1/DTD/svg11.dtd" >
<svg xmlns="http://www.w3.org/2000/svg">
<metadata>Generated by IcoMoon</metadata>
<defs>
<font id="icomoon" horiz-adv-x="1024">
<font-face units-per-em="1024" ascent="960" descent="-64" />
<missing-glyph horiz-adv-x="1024" />
<glyph unicode="&#x20;" horiz-adv-x="512" d="" />
<glyph unicode="&#xe900;" glyph-name="arrow-25" d="M224 208l-96 99.197 384 380.803 384-380.803-96-99.197-288 288-288-288z" />
<glyph unicode="&#xe901;" glyph-name="bell-1" d="M645.845 791.68c-27.477 15.957-44.459 45.653-44.416 77.653v0.128c0.043 50.005-40.021 90.539-89.429 90.539s-89.472-40.533-89.472-90.539v-0.128c0.043-32.043-16.896-61.696-44.416-77.653-199.125-115.712-84.693-499.84-292.779-567.723v-74.624h853.333v74.624c-208.085 67.883-93.653 452.011-292.821 567.723zM512 917.333c23.552 0 42.667-19.157 42.667-42.667 0-23.552-19.115-42.667-42.667-42.667s-42.667 19.115-42.667 42.667c0 23.509 19.115 42.667 42.667 42.667zM640 64c0-68.181-59.392-128-126.763-128s-129.237 59.819-129.237 128h256z" />
<glyph unicode="&#xe902;" glyph-name="briefcase-9" d="M384 704h-85.333v85.333c0 47.104 38.229 85.333 85.333 85.333h256c47.104 0 85.333-38.229 85.333-85.333v-85.333h-85.333v64c0 11.776-9.557 21.333-21.333 21.333h-213.333c-11.776 0-21.333-9.557-21.333-21.333v-64zM682.667 448v-85.333h341.333v-341.333h-1024v341.333h341.333v85.333h-341.333v213.333h1024v-213.333h-341.333zM597.333 490.667h-170.667v-170.667h170.667v170.667z" />
<glyph unicode="&#xe903;" glyph-name="chart-4" d="M213.333 149.333h-170.667v170.667h170.667v-170.667zM469.333 149.333h-170.667v341.333h170.667v-341.333zM725.333 149.333h-170.667v554.667h170.667v-554.667zM981.333 149.333h-170.667v810.667h170.667v-810.667zM1024 64h-1024v-85.333h1024v85.333z" />
<glyph unicode="&#xe904;" glyph-name="coin-1" d="M512 960c-282.752 0-512-229.248-512-512s229.248-512 512-512 512 229.248 512 512-229.248 512-512 512zM554.667 236.928v-44.928h-42.667v42.581c-44.16 0.768-89.856 11.307-128 31.019l19.413 70.144c40.789-15.829 95.104-32.64 137.6-23.040 49.024 11.093 59.051 61.525 4.864 85.803-39.723 18.517-161.195 34.347-161.195 138.368 0 58.155 44.331 110.208 127.317 121.6v45.525h42.667v-43.435c30.891-0.811 65.536-6.187 104.192-17.92l-15.445-70.272c-32.768 11.52-68.992 21.973-104.235 19.84-63.531-3.712-69.12-58.709-24.789-81.749 73.045-34.347 168.277-59.819 168.277-151.339 0.085-73.301-57.301-112.299-128-122.197z" />
<glyph unicode="&#xe905;" glyph-name="diamond-9" d="M896 917.333c-18.688-61.355-66.688-109.312-128-128 61.312-18.688 109.312-66.688 128-128 18.688 61.312 66.688 109.269 128 128-61.312 18.688-109.312 66.645-128 128zM85.291 832c-12.459-40.832-44.459-72.875-85.291-85.333 40.917-12.501 72.832-44.459 85.376-85.333 12.459 40.875 44.459 72.875 85.291 85.333-40.832 12.459-72.832 44.459-85.376 85.333zM874.624 149.333c-15.573-51.029-55.595-91.051-106.624-106.667 51.157-15.616 91.051-55.595 106.709-106.667 15.573 51.072 55.595 91.051 106.624 106.667-51.029 15.531-91.051 55.595-106.709 106.667zM469.333 960c-12.459-40.875-44.459-72.875-85.333-85.333 40.917-12.501 72.875-44.459 85.419-85.333 12.459 40.875 44.459 72.875 85.248 85.333-40.789 12.459-72.789 44.459-85.333 85.333zM127.957 192c-18.56-61.269-66.688-109.269-127.957-128 61.397-18.731 109.397-66.731 128-128 18.731 61.269 66.731 109.269 127.957 128-61.227 18.645-109.227 66.731-128 128zM727.979 704h-428.971l-213.675-240 426.667-528 426.667 525.013-210.688 242.987zM327.168 448l129.664-307.968-248.832 307.968h119.168zM650.539 448l-138.539-329.003-138.539 329.003h277.077zM392.832 490.667l119.168 119.168 119.168-119.168h-238.336zM696.832 448h121.301l-251.691-309.717 130.389 309.717zM800 490.667h-108.501l-128 128h125.525l110.976-128zM337.237 618.667h123.264l-128-128h-109.184l113.92 128z" />
<glyph unicode="&#xe906;" glyph-name="email-9" d="M810.667 573.355s-221.355 14.208-298.667-82.688c85.333 208.896 298.667 253.355 298.667 253.355v85.333l213.333-170.667-213.333-171.477v86.144zM1.109-64h1021.739l-510.848 495.232-510.891-495.232zM72.491 533.333l439.083 319.488 130.261-94.635c30.379 19.584 59.349 34.347 83.328 44.971l-213.589 155.179-511.573-372.267v-532.309l313.685 304.085-241.195 175.488zM744.619 324.608l279.381-270.848v495.445l-279.381-224.597z" />
<glyph unicode="&#xe907;" glyph-name="flip-chart-8" d="M557.952 699.776c14.336 5.845 29.141 6.656 42.709 3.456 29.056-6.912 52.565-31.915 54.528-64.811-9.643 11.776-22.357 19.456-36.267 22.741-13.995 3.328-29.269 2.176-43.691-3.712-28.757-11.733-46.635-39.040-43.819-69.504-31.701 36.352-18.432 93.44 26.539 111.829zM580.181 280.192c28.075-17.493 116.437-66.048 206.72-173.525 81.579 33.323 159.659 65.195 237.141 96.768-35.115 86.229-8.448 134.443-43.435 220.117-23.893 58.453-44.117 64.085-82.901 66.091l12.245-30.208c7.467-18.176-20.053-29.269-27.392-11.179l-11.008 26.88c-8.917 21.973-37.589 16.341-62.677 16.512l14.933-36.565c7.381-18.091-20.011-29.355-27.435-11.179l-12.928 31.744c-9.173 22.443-39.040 15.957-64.341 15.531l15.787-38.741c7.467-18.261-20.096-29.269-27.435-11.221l-64.128 156.885c-19.925 48.811-95.488 19.883-74.923-30.592l94.592-231.851c-13.824 9.173-39.339 20.565-56.747 24.661-53.888 12.715-88.533-41.344-26.069-80.128zM330.24 506.795l-116.907-113.877 30.080-30.251 86.741 83.84 63.829-63.872 113.323 114.005-18.005 42.667-95.061-96.597-64 64.085zM131.499-64h112.128l145.92 170.667h-112.341l-145.707-170.667zM548.48 106.667l145.92-170.667h112.128l-145.707 170.667h-112.341zM426.667-64h85.333v170.667h-85.333v-170.667zM560.683 192c-38.485 24.064-68.992 40.107-88.576 85.333h-344.107v554.667h682.667v-256h85.333v256h42.667v128h-938.667v-128h42.667v-640h518.016z" />
<glyph unicode="&#xe908;" glyph-name="free" d="M439.62 516.044c-5.337 4.336-13.008 6.337-23.349 6.337h-16.678v-60.039h14.009c12.008 0 21.014 2.335 26.017 6.671 5.337 4.336 8.005 11.007 8.005 20.013v6.337c0 9.339-2.668 16.344-8.005 20.68zM947.95 401.636l75.716 46.030-75.716 46.030 64.709 60.373-83.721 29.019 50.7 72.714-87.724 11.007 34.356 81.72-88.391-7.672 16.678 87.057-84.722-25.683-1.668 88.391-77.717-42.694-20.013 86.39-67.377-57.704-37.691 80.052-53.368-70.713-53.702 70.713-37.691-80.052-67.044 58.038-20.013-86.39-77.717 42.694-1.668-88.391-84.722 25.683 16.678-87.057-88.391 7.672 34.356-81.72-87.724-11.007 50.366-73.048-83.721-29.019 64.709-60.373-75.716-46.030 75.716-46.030-64.709-60.373 83.721-29.019-50.7-72.714 87.724-11.007-34.356-81.72 88.391 7.672-16.678-87.057 84.722 25.683 1.668-88.391 77.717 42.694 20.013-86.39 67.044 58.038 37.691-80.052 53.368 70.713 53.368-70.713 37.691 80.052 67.044-58.038 20.013 86.39 77.717-42.694 1.668 88.391 84.722-25.683-16.678 87.057 88.391-7.672-34.356 81.72 87.724 11.007-50.7 72.714 83.721 29.019-63.708 60.373zM319.541 520.714h-87.39v-61.040h67.711v-34.356h-67.711v-98.064h-51.367v227.815h138.423v-34.356zM453.629 326.921c-0.334 36.691-4.003 63.041-10.34 78.718-6.671 15.677-17.011 23.682-31.354 23.682h-12.008v-102.4h-51.367v227.815h89.725c21.681 0 37.358-4.67 46.364-14.343 9.006-9.339 13.676-21.014 13.676-34.689v-12.341c0-13.008-4.003-23.349-12.008-31.354s-20.013-12.341-35.69-14.009c18.012-5.337 31.354-17.011 40.36-35.69 9.006-18.345 13.342-47.031 13.342-85.722h-50.7zM681.777 326.921h-144.761v227.815h138.423v-34.022h-87.057v-61.040h67.711v-34.356h-67.711v-64.375h93.394v-34.022zM857.892 326.921h-144.761v227.815h138.423v-34.022h-87.057v-61.040h67.711v-34.356h-67.711v-64.375h93.394v-34.022z" />
<glyph unicode="&#xe909;" glyph-name="handshake-7" d="M0 296.021l82.432 322.645 150.443-38.016-84.224-322.645-148.651 38.016zM785.707 257.536c5.333-12.245 7.979-25.515 6.613-38.827-3.371-35.371-29.781-61.781-62.165-68.352-10.837-22.741-31.275-37.845-54.827-42.752-10.411-21.845-30.805-37.973-55.296-43.093-13.867-28.501-41.387-43.179-71.424-43.179-22.016 0-42.837 7.808-57.856 22.955-39.595-17.237-81.152 2.048-95.232 36.821-25.429 2.901-47.232 19.285-56.832 42.539-25.557 3.029-47.531 19.541-57.173 42.795-50.688 5.888-78.848 61.44-51.115 106.453-9.941 2.475-21.077 4.437-32.043 6.485l16.341 62.464c22.357-4.267 43.093-9.344 61.995-15.275 38.955 27.947 91.776 12.587 108.757-28.971 25.941-2.944 47.616-19.797 56.917-42.667 25.515-2.901 47.403-19.243 56.96-42.581 31.488-3.499 58.027-27.861 61.824-61.184l0.085-9.6 19.2-17.152c10.752-12.416 29.013-13.824 40.96-4.523 12.203 9.515 13.824 26.624 3.2 38.784l-62.165 54.571c-6.699 5.931 2.219 16.213 9.088 10.283l63.616-55.808c10.965-12.544 29.525-14.165 41.344-4.864 12.16 9.387 13.483 26.923 2.901 39.083l-80.896 69.461c-6.912 5.76 2.048 16.213 8.875 10.325l82.944-71.211c10.581-12.032 28.928-14.293 41.259-4.864 12.075 9.387 14.891 25.856-0.085 42.453-52.907 47.445-113.963 102.613-176.768 161.963-15.147-20.821-92.843-64.085-139.904-64.085s-75.904 28.8-83.627 57.301c-6.699 24.832 2.176 48.597 22.656 60.544 22.827 13.355 45.013 32.512 66.645 54.144-33.664 25.003-51.328 16.981-88.192-0.555-21.461-10.155-46.933-22.229-79.104-27.605l18.688 71.253c56.619 20.821 108.757 68.608 192.213 3.541l20.949 23.552c16.853 19.072 38.869 30.507 64.128 30.507 18.603 0 38.827-6.869 60.075-17.792 64.768-33.835 97.835-53.589 146.901-55.211l16.811-64.341h-0.341c-76.672-1.408-114.176 21.675-192.683 62.72-21.888 11.221-36.651 13.568-46.933 1.877-41.984-47.787-86.656-98.517-136.192-130.688 24.448-19.541 86.144 19.541 110.592 39.253 10.667 8.576 27.221 19.968 48.128 19.968 23.595 0 40.747-14.123 53.077-26.411 29.013-29.013 109.653-101.931 145.365-134.059 18.517 10.325 37.035 18.56 55.936 25.813l16.341-62.592c-13.611-5.717-27.008-12.203-40.533-19.669zM314.795 220.203l25.984 31.872c10.667 12.8 9.173 30.805-3.413 40.277-12.629 9.515-31.445 6.741-42.069-5.973l-26.027-31.957c-10.709-12.715-9.131-30.763 3.413-40.192s31.445-6.784 42.112 5.973zM371.456 177.28l26.325 32.213c10.581 12.672 9.088 30.805-3.499 40.235-12.544 9.429-31.317 6.784-41.984-6.059l-26.283-32.171c-10.709-12.8-8.96-30.379 3.669-39.936 12.672-9.472 31.104-7.125 41.771 5.717zM428.757 134.955l25.941 31.872c10.709 12.757 9.173 30.763-3.413 40.277-12.629 9.472-31.36 6.699-42.069-6.059l-25.984-31.787c-10.709-12.8-9.088-30.891 3.499-40.32 12.501-9.429 31.317-6.827 42.027 6.016zM508.331 164.437c-12.544 9.557-31.36 6.784-42.112-5.931l-26.112-32.043c-10.624-12.757-9.088-30.805 3.499-40.235s31.36-6.827 42.069 6.059l26.027 32c10.795 12.672 9.259 30.72-3.371 40.149zM569.216 116.053l-10.24 9.045c-2.688-10.197-7.381-19.797-14.165-27.733l-15.275-18.816c5.675-4.523 12.288-7.509 19.115-7.509 6.357 0 12.587 1.963 17.707 5.888 12.117 9.515 13.525 26.965 2.859 39.125zM791.125 580.651l84.224-322.645 148.651 38.016-82.432 322.645-150.443-38.016zM451.541 874.667l-42.069-7.424 22.229-126.037 41.984 7.424-22.144 126.037zM614.528 867.243l-42.027 7.424-22.229-126.037 42.027-7.424 22.229 126.037zM768 814.848l-36.992 21.333-64-110.848 36.992-21.333 64 110.848zM292.992 836.181l-36.992-21.333 64-110.848 36.992 21.333-64 110.848z" />
<glyph unicode="&#xe90a;" glyph-name="help-2" d="M512 960c-282.752 0-512-229.248-512-512s229.248-512 512-512 512 229.248 512 512-229.248 512-512 512zM512 181.333c-29.44 0-53.333 23.893-53.333 53.333s23.893 53.333 53.333 53.333c29.483 0 53.333-23.893 53.333-53.333s-23.851-53.333-53.333-53.333zM595.669 434.261c-38.571-41.6-40.405-64.597-39.893-92.928h-85.547c-0.299 62.933 0.853 90.667 61.056 147.968 24.448 23.211 43.733 41.6 41.045 77.696-2.475 34.347-31.147 52.309-58.24 52.309-30.251 0-65.621-22.485-65.621-85.888h-85.76c0 102.4 60.117 168.533 153.173 168.533 44.203 0 82.859-14.464 108.8-40.747 24.32-24.661 36.907-58.539 36.437-98.048-0.683-59.008-36.565-97.749-65.451-128.896z" />
<glyph unicode="&#xe90b;" glyph-name="help-6" d="M512 832c235.264 0 426.667-153.259 426.667-341.632 0-209.792-219.52-339.669-422.827-339.669-82.645 0-144.341 16.939-187.477 27.477-42.667-26.155-68.053-44.245-182.272-77.653 22.827 58.581 30.848 117.248 25.685 181.973-35.755 42.667-86.4 102.4-86.4 207.872-0.043 188.373 191.36 341.632 426.624 341.632zM512 917.333c-270.421 0-512-180.309-512-426.965 0-87.467 31.488-173.355 87.339-240 2.347-78.080-43.648-190.123-85.035-271.701 111.019 20.053 268.843 64.341 340.395 108.203 60.501-14.72 118.4-21.461 173.184-21.461 302.251 0 508.16 206.379 508.16 425.003-0.043 247.936-243.285 426.923-512.043 426.923zM555.691 321.067c0-24.149-19.541-43.733-43.691-43.733-24.107 0-43.691 19.584-43.691 43.733 0 24.107 19.584 43.691 43.691 43.691 24.149 0 43.691-19.584 43.691-43.691zM604.373 670.592c-21.248 21.547-52.949 33.408-89.173 33.408-76.203 0-125.483-54.229-125.483-138.112h70.272c0 51.925 29.013 70.357 53.803 70.357 22.144 0 45.653-14.72 47.659-42.837 2.219-29.611-13.611-44.629-33.621-63.701-49.365-46.933-50.304-69.675-50.048-121.259h70.101c-0.427 23.211 1.067 42.069 32.683 76.16 23.68 25.515 53.12 57.259 53.717 105.685 0.341 32.341-9.941 60.117-29.909 80.299z" />
<glyph unicode="&#xe90c;" glyph-name="home-6" d="M896 405.333v-426.667h-256v256h-256v-256h-256v426.667h-128l512 512 512-512h-128zM853.333 657.365v217.301h-128v-89.301l128-128z" />
<glyph unicode="&#xe90d;" glyph-name="key-8" d="M655.616 960c-266.581 0-369.707-319.915-160.853-529.067 133.717-133.973 335.531-149.248 450.816-33.792 194.517 194.816 0.341 562.859-289.963 562.859zM865.067 478.421c-84.693-84.821-215.979-39.083-205.312 73.301 2.389 25.173-18.859 46.336-43.904 43.904-111.317-10.624-158.251 120.405-73.131 205.696 85.12 85.248 215.979 38.187 205.312-73.301-2.389-25.344 18.944-46.379 43.904-43.947 111.232 10.581 158.293-120.32 73.131-205.653zM361.685 177.493l90.411-90.539-60.288-60.416-60.288 60.416-30.123-30.208 60.288-60.373-60.288-60.373-90.411 90.581-90.453-90.581-120.533 120.747 379.349 379.947c16.213-23.339 34.603-45.525 55.168-66.133 20.309-20.352 42.325-38.485 65.451-54.571l-138.283-138.496z" />
<glyph unicode="&#xe90e;" glyph-name="magnifier-2" d="M1015.851 36.437l-264.747 264.747c49.792 68.48 79.232 152.704 79.232 243.669 0 228.907-186.24 415.147-415.189 415.147-228.907 0-415.147-186.24-415.147-415.147 0-228.949 186.24-415.147 415.147-415.147 86.784 0 167.381 26.752 234.112 72.448l266.155-266.155 100.437 100.437zM121.771 544.853c0 161.792 131.627 293.419 293.419 293.419s293.419-131.627 293.419-293.419-131.627-293.419-293.419-293.419c-161.835 0-293.419 131.627-293.419 293.419z" />
<glyph unicode="&#xe90f;" glyph-name="menu-1" d="M1024 704h-1024v170.667h1024v-170.667zM1024 533.333h-1024v-170.667h1024v170.667zM1024 192h-1024v-170.667h1024v170.667z" />
<glyph unicode="&#xe910;" glyph-name="note-35" d="M854.229 960c-70.229 0-127.147-56.96-127.147-127.147 0-27.819 8.96-53.589 24.149-74.496l-139.733-139.691h91.477l98.517 98.517c16.043-7.381 33.92-11.477 52.736-11.477 70.187 0 127.104 56.917 127.104 127.147s-56.917 127.147-127.104 127.147zM854.229 860.245c-21.888 0-39.637 12.459-39.637 27.861s17.749 27.861 39.637 27.861c21.845 0 39.595-12.459 39.595-27.861s-17.792-27.861-39.595-27.861zM256 405.333h426.667v-42.667h-426.667v42.667zM682.667 490.667h-426.667v42.667h426.667v-42.667zM554.667 661.333v-42.667h-298.667v42.667h298.667zM896 624.597v-278.357c0-102.059-283.648-410.24-418.603-410.24h-434.731v1024h642.347c-18.731-24.917-32.725-53.632-39.040-85.333h-517.973v-853.333h314.112c177.323 0 112.555 256 112.555 256s256-70.4 256 104.832v245.163c28.501-9.173 56.747-8.448 85.333-2.731z" />
<glyph unicode="&#xe911;" glyph-name="arrow-26" d="M242 772l111.597 108 428.403-432-428.403-432-111.597 108 324 324-324 324z" />
<glyph unicode="&#xe912;" glyph-name="paper-plane-1" d="M1024 960l-256-938.667-346.837 308.864 332.885 351.317-446.208-308.352-307.84 74.837 1024 512zM384 248.832v-312.832l139.008 189.056-139.008 123.776z" />
<glyph unicode="&#xe913;" glyph-name="phone-1" d="M853.333-5.163l-150.229 289.92c-0.341-0.171-84.224-41.387-88.064-43.136-95.573-46.336-290.091 333.653-196.651 383.744l88.875 43.776-149.035 290.859-89.856-44.331c-307.285-160.213 180.608-1108.565 494.933-964.907 5.163 2.347 89.685 43.904 90.027 44.075z" />
<glyph unicode="&#xe914;" glyph-name="phone-4" d="M891.307-49.237c-314.325-143.659-802.219 804.693-494.976 964.907l89.899 44.331 148.992-290.859-88.875-43.776c-93.397-50.091 101.12-430.080 196.651-383.744 3.883 1.749 87.765 42.965 88.064 43.136l150.272-289.92c-0.341-0.171-84.864-41.728-90.027-44.075zM488.619 47.36c-62.976-45.739-149.589-49.92-175.957-4.523-20.053 34.517-13.269 73.728-5.419 119.168 8.576 49.536 18.304 105.728-12.587 158.293-52.011 88.576-166.272 84.608-251.989 28.587l40.789-62.421c35.371 23.125 76.117 33.067 106.368 25.984 70.528-16.555 49.109-107.776 43.947-137.771-9.045-52.181-19.2-111.36 14.379-169.301 53.035-91.435 195.371-88.576 291.669-13.483-17.579 17.365-34.603 35.968-51.2 55.467z" />
<glyph unicode="&#xe915;" glyph-name="script-5" d="M902.613 591.36c-38.784-64.811-99.285-130.859-174.805-128.171-17.621-30.123-36.352-71.552-57.131-119.595l-55.979-23.595c39.936 99.968 95.189 211.669 157.781 298.411-28.587-22.571-74.496-69.845-113.579-118.741-46.848 77.995-12.8 157.483 41.515 220.971 0.896-27.349 15.317-51.029 25.643-62.933-3.712 22.613-4.864 63.531 8.32 100.309 30.635 31.232 58.197 54.229 90.155 75.093-3.541-20.395 3.413-43.776 11.179-58.069 1.024 20.907 9.557 61.013 22.229 78.507 39.424 31.019 99.499 58.581 166.059 63.787-3.456-41.515-18.603-109.867-43.691-153.771-21.973-17.237-52.096-29.013-76.416-35.541 21.035-3.797 43.989-3.285 63.744 0.043-11.477-31.701-23.552-60.928-42.581-97.109-28.971-19.968-67.328-31.232-93.995-35.2 19.627-7.979 54.272-10.453 71.552-4.395zM312.064 429.013l27.52-33.323 203.648 119.083-28.501 32.768-202.667-118.528zM609.024 439.168l-28.501 32.725-205.013-119.808 27.52-33.323 205.995 120.405zM808.661 438.869c-17.963-8.661-36.309-14.549-54.869-16.981-5.12-9.856-10.496-21.077-16.085-32.981l12.715-14.592c26.581-29.525 19.584-72.704-16.043-95.531-32.981-21.205-227.883-144.043-272.469-172.16-3.157 30.763-15.275 59.349-35.243 83.115-20.011 23.765-260.907 314.709-320.981 391.595-20.011 25.6-24.533 53.12-12.587 77.483 11.435 23.424 35.925 39.168 61.013 39.168 39.211 0 60.075-27.947 66.091-51.84 6.827-27.349-1.493-52.523-26.581-71.893l56.704-69.291 332.629 189.696c60.672 44.843 77.739 127.616 39.68 192.555-26.368 44.928-75.051 72.789-127.061 72.789-50.688 0-33.835 0.683-408.107-190.933-52.651-25.216-87.467-76.245-87.467-136.619 0-37.12 13.141-74.923 37.931-106.112 60.885-76.544 322.603-391.893 324.949-394.965 15.829-21.035 18.219-47.744 6.4-71.381-11.819-23.68-34.645-37.803-60.971-37.803-39.211 0-60.075 27.947-66.091 51.883-6.656 26.837 0.512 51.541 25.771 70.571l-54.485 65.92c-35.072-28.373-54.485-63.829-58.752-104.192-9.899-94.080 65.067-170.368 154.155-170.368 25.429 0 55.936 7.552 78.549 21.76l402.219 253.696c40.832 28.331 63.659 75.989 63.659 123.605 0 31.787-10.24 62.037-29.355 85.461l-15.317 18.347zM470.187 868.181c8.021 3.712 16.981 5.717 25.984 5.717 22.699 0 42.539-11.989 53.035-32.085 13.312-25.429 9.643-62.677-23.381-81.579l-217.472-123.221c-2.176 46.464-24.704 88.789-62.080 116.565l223.915 114.603zM559.659 297.173l15.403 38.613 10.624 25.984-147.157-86.059 27.52-33.323 93.611 54.784z" />
<glyph unicode="&#xe916;" glyph-name="shopping-bag-6" d="M128 21.333v554.667h128v-64c0-11.776 9.557-21.333 21.333-21.333s21.333 9.557 21.333 21.333v64h256v-64c0-11.776 9.557-21.333 21.333-21.333s21.333 9.557 21.333 21.333v64h128v-152.96c13.952 2.176 28.117 3.627 42.667 3.627s28.715-1.451 42.667-3.627v238.293h-213.333v128c0 94.251-76.416 170.667-170.667 170.667s-170.667-76.416-170.667-170.667v-128h-213.333v-725.333h548.181c-28.245 23.467-51.584 52.48-68.693 85.333h-394.155zM298.667 789.333c0 70.571 57.429 128 128 128s128-57.429 128-128v-128h-256v128zM839.424 119.253c0-16.384-4.821-26.283-14.549-26.283-10.112 0-15.275 11.008-15.104 26.283 0 14.635 4.523 26.283 15.104 26.283 10.667 0 14.549-11.435 14.549-26.283zM951.979 149.333l29.355 37.035-40.405 24.917 14.677 44.672-46.592 9.813-1.792 46.933-47.147-6.485-17.92 43.52-42.197-21.973-31.957 34.901-31.915-34.859-42.197 21.973-17.877-43.52-47.189 6.485-1.707-46.933-46.635-9.813 14.677-44.672-40.491-24.96 29.355-37.035-29.355-37.077 40.448-24.917-14.677-44.672 46.635-9.813 1.707-46.933 47.189 6.485 17.877-43.563 42.197 22.016 31.957-34.859 31.915 34.859 42.197-22.016 17.92 43.563 47.147-6.485 1.792 46.933 46.592 9.813-14.677 44.672 40.448 24.917-29.355 37.077zM677.163 178.944c0 26.027 16.085 45.781 41.472 45.781 25.472 0 39.851-18.432 39.851-43.307 0-30.549-19.584-46.464-41.045-46.464-22.571 0.043-40.277 16.64-40.277 43.989zM737.749 73.899h-18.475l85.035 150.827h18.688l-85.248-150.827zM824.149 74.368c-22.357 0-40.107 16.64-40.363 43.989 0 26.027 16.128 45.824 41.515 45.824 25.557 0 39.851-18.389 39.851-43.349-0.043-30.549-19.584-46.464-41.003-46.464zM732.757 179.84c0-16.384-4.779-26.24-14.592-26.24-9.984 0-15.317 10.965-15.317 26.24 0 14.592 4.779 26.283 15.104 26.283 10.709 0 14.805-11.477 14.805-26.283z" />
<glyph unicode="&#xe917;" glyph-name="time-2" d="M512 874.667c235.264 0 426.667-191.403 426.667-426.667s-191.403-426.667-426.667-426.667-426.667 191.403-426.667 426.667 191.403 426.667 426.667 426.667zM512 960c-282.752 0-512-229.248-512-512s229.248-512 512-512 512 229.248 512 512-229.248 512-512 512zM554.667 448v256h-85.333v-341.333h298.667v85.333h-213.333z" />
<glyph unicode="&#xe918;" glyph-name="user-5" d="M810.667 661.291c0-164.907-133.717-298.667-298.667-298.667s-298.667 133.76-298.667 298.667c0 164.992 133.717 298.709 298.667 298.709s298.667-133.717 298.667-298.709zM742.485 354.944c-64.256-48.512-143.957-77.653-230.485-77.653-86.613 0-166.357 29.227-230.699 77.739-173.739-76.501-281.301-314.709-281.301-419.029h1024c0 103.381-110.933 341.589-281.515 418.944z" />
<glyph unicode="&#xe919;" glyph-name="user-8" d="M832 320c-105.941 0-192-85.973-192-192s86.059-192 192-192 192 85.973 192 192-86.059 192-192 192zM938.667 106.667h-85.333v-85.333h-42.667v85.333h-85.333v42.667h85.333v85.333h42.667v-85.333h85.333v-42.667zM632.32-64h-632.107l-0.213 52.949c0 107.52 8.491 169.6 135.595 198.955 143.573 33.152 285.355 62.848 217.173 188.501-201.941 372.437-57.6 583.595 159.232 583.595 288.043 0 320.256-324.053 155.307-583.637-55.125-86.656-112.64-154.88-112.64-248.363 0-74.539 29.696-142.123 77.653-192z" />
<glyph unicode="&#xe91a;" glyph-name="user-14" d="M888.405 187.904c-146.731 33.877-283.349 63.573-217.173 188.501 201.344 380.245 53.376 583.595-159.232 583.595-216.789 0-361.131-211.157-159.232-583.595 68.139-125.653-73.6-155.349-217.173-188.501-127.104-29.355-135.595-91.435-135.595-198.955l0.213-52.949h447.275l30.037 128h68.907l30.037-128h447.275l0.213 52.949c0.043 107.52-8.448 169.6-135.552 198.955zM537.216 106.667h-49.664l-38.827 85.333h127.744l-39.253-85.333z" />
<glyph unicode="&#xe91b;" glyph-name="menu-2" d="M170.667 21.333h-170.667v170.667h170.667v-170.667zM170.667 533.333h-170.667v-170.667h170.667v170.667zM170.667 874.667h-170.667v-170.667h170.667v170.667zM298.667 874.667v-170.667h725.333v170.667h-725.333zM298.667 362.667h725.333v170.667h-725.333v-170.667zM298.667 21.333h725.333v170.667h-725.333v-170.667z" />
<glyph unicode="&#xe91c;" glyph-name="user-18" d="M888.405 187.904c-146.731 33.877-283.349 63.573-217.173 188.501 17.067 32.256 31.573 63.189 43.819 92.928-36.949-21.163-78.208-37.547-100.651-43.136l-9.557 45.483c48.981 13.995 101.888 40.064 138.752 78.421 78.336 268.075-54.059 409.899-231.595 409.899-216.832 0-361.173-211.157-159.232-583.595 68.181-125.653-73.6-155.349-217.173-188.501-127.104-29.355-135.595-91.435-135.595-198.955l0.213-52.949h1023.573l0.213 52.949c0 107.52-8.491 169.6-135.595 198.955zM512.341 391.68c-18.816-3.883-37.248 8.277-41.088 27.136-3.925 18.859 8.235 37.291 27.051 41.173l74.795 16.597 14.037-68.267-74.795-16.64z" />
<glyph unicode="&#xe91d;" glyph-name="coin-8" d="M85.333 610.133v-55.467c0-106.667 200.533-192 426.667-192s426.667 85.333 426.667 192v55.467c-98.133-76.8-264.533-119.467-426.667-119.467s-328.533 42.667-426.667 119.467zM85.333 396.8v-55.467c0-106.667 200.533-192 426.667-192s426.667 85.333 426.667 192v55.467c-98.133-76.8-264.533-119.467-426.667-119.467s-328.533 42.667-426.667 119.467zM85.333 183.467v-55.467c0-106.667 200.533-192 426.667-192s426.667 85.333 426.667 192v55.467c-98.133-76.8-264.533-119.467-426.667-119.467s-328.533 42.667-426.667 119.467zM938.667 772.267c0-103.682-191.025-187.733-426.667-187.733s-426.667 84.051-426.667 187.733c0 103.682 191.025 187.733 426.667 187.733s426.667-84.051 426.667-187.733z" />
<glyph unicode="&#xe91e;" glyph-name="checkbox-8" d="M810.667 960h-597.333c-117.845 0-213.333-95.531-213.333-213.333v-597.333c0-117.803 95.488-213.333 213.333-213.333h597.333c117.845 0 213.333 95.531 213.333 213.333v597.333c0 117.803-95.488 213.333-213.333 213.333zM428.416 234.667l-192 184.277 59.52 61.227 131.413-125.312 299.563 306.475 60.672-60.117-359.168-366.549z" />
<glyph unicode="&#xe91f;" glyph-name="plus-2" d="M1024 533.333h-426.667v426.667h-170.667v-426.667h-426.667v-170.667h426.667v-426.667h170.667v426.667h426.667z" />
<glyph unicode="&#xe920;" glyph-name="share-8" d="M256 234.667c96.811 421.589 469.333 497.792 469.333 497.792v142.208l298.667-283.179-298.667-285.696v142.208s-263.253 7.296-469.333-213.333zM768 228.48v-121.813h-682.667v512h281.515c32.768 33.579 66.603 61.824 99.797 85.333h-466.645v-682.667h853.333v288.811l-85.333-81.664z" />
<glyph unicode="&#xe921;" glyph-name="speech-bubble-6" d="M512 832c235.264 0 426.667-153.259 426.667-341.632 0-209.792-219.52-339.669-422.827-339.669-82.645 0-144.341 16.939-187.477 27.477-42.667-26.155-68.053-44.245-182.272-77.653 22.827 58.581 30.848 117.248 25.685 181.973-35.755 42.667-86.4 102.4-86.4 207.872-0.043 188.373 191.36 341.632 426.624 341.632zM512 917.333c-270.421 0-512-180.309-512-426.965 0-87.467 31.488-173.355 87.339-240 2.347-78.080-43.648-190.123-85.035-271.701 111.019 20.053 268.843 64.341 340.395 108.203 60.501-14.72 118.4-21.461 173.184-21.461 302.251 0 508.16 206.379 508.16 425.003-0.043 247.936-243.285 426.923-512.043 426.923zM512 320h-213.333v42.667h213.333v-42.667zM725.333 448h-426.667v42.667h426.667v-42.667zM725.333 576h-426.667v42.667h426.667v-42.667z" />
<glyph unicode="&#xe922;" glyph-name="email-4" d="M0 832v-768h1024v768h-1024zM918.101 746.667l-406.101-329.088-406.101 329.088h812.203zM85.333 149.333v504.192l426.667-345.771 426.667 345.771v-504.192h-853.333z" />
<glyph unicode="&#xe923;" glyph-name="lock-3" d="M768 533.333v170.667c0 141.355-114.645 256-256 256s-256-114.645-256-256v-170.667h-128v-597.333h768v597.333h-128zM554.667 203.819v-97.152h-85.333v97.152c-25.387 14.805-42.667 41.984-42.667 73.515 0 47.104 38.229 85.333 85.333 85.333s85.333-38.229 85.333-85.333c0-31.488-17.237-58.709-42.667-73.515zM341.333 533.333v170.667c0 94.123 76.544 170.667 170.667 170.667 94.080 0 170.667-76.544 170.667-170.667v-170.667h-341.333z" />
<glyph unicode="&#xe924;" glyph-name="trash-can-1" d="M128 704v-768h768v768h-768zM341.333 106.667c0-23.552-19.115-42.667-42.667-42.667s-42.667 19.115-42.667 42.667v426.667c0 23.552 19.115 42.667 42.667 42.667s42.667-19.115 42.667-42.667v-426.667zM554.667 106.667c0-23.552-19.115-42.667-42.667-42.667s-42.667 19.115-42.667 42.667v426.667c0 23.552 19.115 42.667 42.667 42.667s42.667-19.115 42.667-42.667v-426.667zM768 106.667c0-23.552-19.115-42.667-42.667-42.667s-42.667 19.115-42.667 42.667v426.667c0 23.552 19.115 42.667 42.667 42.667s42.667-19.115 42.667-42.667v-426.667zM938.667 874.667v-85.333h-853.333v85.333h243.669c38.4 0 69.589 46.891 69.589 85.333h226.773c0-38.443 31.147-85.333 69.589-85.333h243.712z" />
<glyph unicode="&#xe925;" glyph-name="check-mark-6" d="M995.584 449.707c-30.421 30.976-37.205 78.037-16.768 116.352 14.592 27.307 15.616 59.776 2.731 87.979-12.843 28.16-38.101 48.725-68.309 55.552-42.283 9.6-73.472 45.525-76.928 88.789-2.517 30.848-19.243 58.795-45.312 75.52-25.984 16.768-58.325 20.395-87.467 9.771-40.789-14.805-86.443-1.365-112.725 33.109-18.773 24.576-47.957 39.040-78.933 39.040-30.933 0-60.117-14.464-78.891-39.040-26.155-34.517-71.808-47.957-112.597-33.152-29.099 10.581-61.44 6.955-87.467-9.771s-42.795-44.672-45.269-75.52c-3.499-43.264-34.645-79.232-76.928-88.789-30.208-6.827-55.467-27.392-68.309-55.552s-11.819-60.672 2.773-87.936c20.437-38.272 13.653-85.376-16.725-116.352-21.717-22.059-31.872-52.992-27.477-83.627s22.869-57.472 49.92-72.533c37.888-21.12 57.685-64.427 48.811-106.88-6.272-30.293 1.877-61.781 22.144-85.163 20.309-23.424 50.347-36.011 81.152-34.048 43.349 2.688 83.328-23.040 98.859-63.531 11.051-28.928 34.987-50.987 64.725-59.691 29.653-8.704 61.739-3.072 86.656 15.232 34.944 25.728 82.603 25.728 117.504 0 24.917-18.347 57.003-23.979 86.656-15.232 29.739 8.704 53.675 30.805 64.768 59.691 15.488 40.491 55.509 66.261 98.816 63.531 30.891-1.963 60.885 10.624 81.152 34.048 20.267 23.381 28.459 54.869 22.144 85.163-8.832 42.453 10.923 85.76 48.853 106.88 27.008 15.104 45.44 41.899 49.877 72.533s-5.76 61.568-27.435 83.627zM458.667 218.027l-192 186.197 79.232 79.232 112.768-106.923 240.768 246.784 79.232-79.232-320-326.059z" />
<glyph unicode="&#xe926;" glyph-name="microphone-9" d="M169.771 318.080c-62.635-41.728-92.501-96.555-95.189-168.747h-74.581c2.944 100.096 46.933 178.603 134.528 234.539l35.243-65.792zM825.131 917.333c-79.019 0-136.448-41.216-176.555-111.744l151.253-282.368c145.067-9.472 224.171 91.733 224.171 195.2 0 110.848-89.515 198.912-198.869 198.912zM190.805 459.605l66.432-123.989 449.664 180.437-115.883 216.32-400.213-272.768zM394.112 298.624c27.008-26.411 32.597-70.315 32.597-109.141v-210.816h85.291v217.472c0 75.776 28.245 129.024 74.027 179.499l-191.915-77.013z" />
<glyph unicode="&#xe927;" glyph-name="crown-5" d="M938.667 149.333v-128h-853.333v128h853.333zM938.667 789.333c-64 0-113.579-71.893-68.181-136.277 22.827-32.384 17.323-51.883 1.92-74.624-32.64-48.085-79.872-87.765-147.072-87.765-107.563 0-164.437 88.875-176.256 164.181-4.096 26.197-6.4 45.824 18.603 70.144 17.152 16.64 29.653 38.571 29.653 64.341 0 47.104-38.229 85.333-85.333 85.333s-85.333-38.229-85.333-85.333c0-25.771 12.501-47.701 29.653-64.341 25.003-24.32 22.656-43.947 18.603-70.144-11.819-75.307-68.693-164.181-176.256-164.181-67.2 0-114.432 39.68-147.072 87.808-15.445 22.699-20.949 42.197 1.92 74.581 45.397 64.384-4.181 136.277-68.181 136.277-47.104 0-85.333-38.229-85.333-85.333 0-34.005 19.797-63.787 48.811-77.141 35.2-16.213 36.523-56.192 36.523-92.629v-299.563h853.333v299.563c0 36.437 1.323 76.459 36.523 92.629 29.013 13.355 48.811 43.136 48.811 77.141 0 47.104-38.229 85.333-85.333 85.333z" />
<glyph unicode="&#xe928;" glyph-name="check-mark-2" d="M384 62.507l-384 368.555 119.083 122.453 262.656-250.624 520.96 530.603 121.301-120.192z" />
<glyph unicode="&#xe929;" glyph-name="x-mark-2" d="M1022.037 62.72l-391.851 388.053 387.925 391.424-120.832 119.765-387.84-391.637-391.509 387.755-119.893-119.893 391.936-388.48-388.053-391.851 119.893-119.893 388.779 392.192 391.68-388.267z" />
<glyph unicode="&#xe92a;" glyph-name="handshake-6" d="M518.485 165.803c13.397-9.771 16.341-28.629 6.4-41.984l-34.432-46.592c-9.173-12.544-29.099-15.957-42.069-6.443-13.397 9.856-16.341 28.672-6.485 42.069l34.517 46.592c9.771 13.227 28.587 16.299 42.069 6.357zM308.181 210.432l34.432 46.379c9.813 13.397 6.997 32.213-6.485 42.112s-32.256 6.955-42.069-6.443l-34.389-46.421c-9.813-13.355-6.955-32.256 6.443-42.112 12.715-9.301 32.768-6.229 42.069 6.485zM415.531 203.691l-34.347-46.336c-9.856-13.44-6.912-32.299 6.443-42.155 12.843-9.429 32.853-6.187 42.112 6.443l34.347 46.421c9.856 13.355 6.955 32.213-6.443 42.112-13.355 9.813-32.128 6.955-42.112-6.485zM567.552 113.365c-5.461-12.885-20.139-30.976-30.165-44.544 6.613-3.413 13.184-4.821 19.243-4.821 23.125 0 38.485 21.803 17.707 42.581l-6.784 6.784zM354.816 248.064l-34.645-46.763c-9.813-13.397-6.699-31.829 6.656-41.728 13.141-9.6 32.768-6.4 41.856 6.101l34.645 46.805c9.899 13.312 6.955 32.213-6.485 42.069-13.44 9.813-32.213 6.869-42.027-6.485zM898.645 282.667l125.355 33.323-67.541 260.011-127.104-38.229 69.291-255.104zM792.747 509.739c-61.995-4.523-120.917 18.304-185.643 51.712-14.251 7.339-30.677 13.312-46.72 13.312-14.763 0-29.227-5.077-41.344-18.816-43.691-49.536-69.077-93.312-121.131-123.648-25.643-14.976 4.437-61.867 59.563-42.624 28.075 9.856 66.133 35.285 97.152 60.288 24.405 19.669 38.997 16.811 60.16-4.352 39.595-39.637 172.928-171.221 172.928-171.221 20.608 12.715 40.533 22.997 60.288 31.829l-55.253 203.52zM194.645 537.771l-127.104 38.229-67.541-260.011 125.355-33.323 69.291 255.104zM766.635 233.728c-20.651 22.827-159.445 159.275-184.107 183.893-41.856-31.403-96.981-75.136-150.229-75.136-40.235 0-74.752 23.765-83.968 57.771-7.381 27.093 3.968 54.827 28.16 68.949 30.293 17.664 50.389 41.856 74.88 72.149-74.837 47.275-138.667-29.525-219.691-30.251l-54.315-199.893c23.723-5.632 44.373-11.605 63.531-18.816l18.773 25.387c33.792 46.123 104.277 36.565 125.867-14.976 27.307-2.389 50.603-20.011 60.757-44.373 26.411-2.304 50.091-19.072 60.672-44.331 39.936-3.456 72.533-39.68 65.28-84.139l27.904-27.904c11.733-11.776 30.848-11.733 42.539 0 11.776 11.776 11.776 30.848 0 42.624l-53.931 53.973c-2.944 2.944-2.944 7.808 0.128 10.752 2.944 2.816 7.637 2.773 10.539-0.085l64.981-65.024c11.733-11.776 30.848-11.776 42.581 0 11.776 11.776 11.776 30.805 0 42.581l-80 80.043c-3.072 3.029-2.944 8.021 0.256 10.88 2.944 2.688 7.595 2.645 10.368-0.213l86.4-86.4c11.733-11.776 30.848-11.776 42.581 0 11.776 11.733 11.776 30.763 0.043 42.539zM451.499 832l-41.984-7.424 22.229-126.037 41.984 7.424-22.229 126.037zM614.485 824.576l-41.984 7.424-22.229-126.037 42.069-7.424 22.144 126.037zM768 772.181l-36.992 21.333-64-110.848 36.992-21.333 64 110.848zM292.992 793.515l-36.992-21.333 64-110.848 36.992 21.333-64 110.848z" />
<glyph unicode="&#xe92b;" glyph-name="paperclip-2" d="M921.003 513.664l-428.8-429.867c-83.2-83.157-218.539-83.157-301.696 0s-83.2 218.539 0 301.739l453.461 451.627c49.92 49.92 131.115 49.92 181.035 0 49.877-49.92 49.92-131.072 0-180.992l-362.965-361.131c-16.64-16.64-43.691-16.64-60.331 0s-16.64 43.691 0 60.331l302.635 300.8-60.373 60.331-302.635-300.757c-50.005-50.005-49.963-131.115 0-181.077s131.029-49.963 180.992 0l362.965 361.131c41.685 41.685 62.464 96.256 62.464 150.869 0 118.144-95.829 213.291-213.333 213.291-54.613 0-109.184-20.821-150.869-62.507l-453.419-451.541c-58.283-58.368-87.467-134.784-87.467-211.243 0-164.821 133.547-298.667 298.667-298.667 76.459 0 152.875 29.184 211.2 87.467l428.8 429.867-60.331 60.331z" />
</font>
</defs>
</svg>
