<svg xmlns="http://www.w3.org/2000/svg" width="115.06" height="86.03" viewBox="0 0 115.06 86.03">
  <defs>
    <style>
      .cls-1 {
        fill: #fff;
        fill-rule: evenodd;
      }
    </style>
  </defs>
  <path id="シェイプ_125" data-name="シェイプ 125" class="cls-1" d="M2405.15,1077.02h-97.29a8.858,8.858,0,0,1-8.88-8.81v-5.2a2.644,2.644,0,0,1,2.65-2.63h109.75a2.644,2.644,0,0,1,2.65,2.63v5.2A8.858,8.858,0,0,1,2405.15,1077.02Zm-102.99-13.48v4.67a5.687,5.687,0,0,0,5.7,5.65h97.29a5.687,5.687,0,0,0,5.7-5.65v-4.67H2302.16Zm106.67,0H2304.18a1.586,1.586,0,0,1-1.59-1.58V992.576a1.583,1.583,0,0,1,1.59-1.579h104.65a1.583,1.583,0,0,1,1.59,1.579v69.384A1.586,1.586,0,0,1,2408.83,1063.54Zm-103.06-3.16h101.47V994.155H2305.77v66.225Zm95.41-4.11h-89.35a1.577,1.577,0,0,1-1.59-1.57V999.836a1.584,1.584,0,0,1,1.59-1.579h89.35a1.593,1.593,0,0,1,1.6,1.579V1054.7A1.586,1.586,0,0,1,2401.18,1056.27Zm-87.76-3.15h86.17v-51.7h-86.17v51.7Zm51.16-2.72a1.586,1.586,0,0,1-1.59-1.58v-8.67a1.59,1.59,0,0,1,3.18,0v8.67A1.586,1.586,0,0,1,2364.58,1050.4Zm-8.07-28.43a8.435,8.435,0,1,1,8.49-8.44A8.48,8.48,0,0,1,2356.51,1021.97Zm0-13.72a5.28,5.28,0,1,0,5.31,5.28A5.3,5.3,0,0,0,2356.51,1008.25Zm-8.08,42.15a1.586,1.586,0,0,1-1.59-1.58v-8.67a1.59,1.59,0,0,1,3.18,0v8.67A1.586,1.586,0,0,1,2348.43,1050.4Zm23.87,0h-31.58a1.594,1.594,0,0,1-1.6-1.58v-13.69a11.087,11.087,0,0,1,9.88-10.99,1.58,1.58,0,1,1,.36,3.14,7.91,7.91,0,0,0-7.05,7.85v12.11h28.39v-12.11a7.91,7.91,0,0,0-7.05-7.85,1.58,1.58,0,1,1,.36-3.14,11.087,11.087,0,0,1,9.88,10.99v13.69A1.592,1.592,0,0,1,2372.3,1050.4Zm-3.05,21.46h-25.49a6.809,6.809,0,0,1-6.83-6.78v-3.12a1.579,1.579,0,0,1,1.59-1.58h35.97a1.579,1.579,0,0,1,1.59,1.58v3.12A6.809,6.809,0,0,1,2369.25,1071.86Zm-29.14-8.32v1.54a3.645,3.645,0,0,0,3.65,3.62h25.49a3.645,3.645,0,0,0,3.65-3.62v-1.54h-32.79Z" transform="translate(-2298.97 -991)"/>
</svg>
