<svg width="183" height="12" viewBox="0 0 183 12" fill="none" xmlns="http://www.w3.org/2000/svg">
<path d="M10.5781 7.98816C10.5781 9.93697 9.23507 11.3076 6.58088 11.3183C6.38901 10.8792 6.07989 10.1297 5.73879 9.61573C7.97726 9.92626 8.84067 8.96256 8.84067 7.99886C8.84067 7.24932 8.33968 6.63898 7.09253 6.63898C6.47429 6.63898 5.67483 6.74606 4.91802 6.97092L4.93933 9.4337C4.93933 10.7186 4.27845 11.3718 3.05262 11.3718C1.56031 11.3718 0.398438 10.4188 0.398438 9.14459C0.398438 7.72046 1.65624 6.64969 3.27647 5.9751V4.36894C2.88207 4.39036 2.50899 4.40106 2.16789 4.40106C1.63492 4.40106 1.17657 4.37965 0.79283 4.29399V2.61287C1.16591 2.67712 1.63492 2.71995 2.25317 2.71995C2.56229 2.71995 2.90339 2.70924 3.26581 2.68783V1.92758C3.26581 1.47785 3.24449 0.996002 3.21252 0.664062L4.93933 0.760432C4.93933 0.760432 4.88604 1.36007 4.88604 1.78838V2.54862C5.56824 2.46296 6.23978 2.35589 6.74077 2.22739V3.91922C6.22912 4.01559 5.57889 4.12266 4.89669 4.20832C4.89669 4.60451 4.8967 5.01141 4.90735 5.42901C5.68549 5.25768 6.50627 5.16131 7.25243 5.16131C9.28837 5.16131 10.5675 6.33917 10.5675 7.97745L10.5781 7.98816ZM3.31911 8.90902V7.43135C2.42372 7.85966 1.98668 8.43788 1.98668 8.98398C1.98668 9.49795 2.42372 9.72281 2.82878 9.72281C3.26581 9.72281 3.31911 9.44441 3.31911 8.90902ZM7.49759 3.40524L8.21176 1.9597C9.25638 2.10961 10.7594 2.9234 11.3456 3.55515L10.5355 4.94716C10.0345 4.43319 8.7021 3.59798 7.48693 3.40524H7.49759Z" fill="black"/>
<path d="M23.3046 9.84009C23.8162 9.84009 24.232 9.84009 24.5517 9.81867V11.4141C24.232 11.3927 23.8162 11.3927 23.3046 11.3927H14.937C14.4253 11.3927 13.9989 11.3927 13.6898 11.4141V9.81867C13.9989 9.84009 14.4253 9.84009 14.937 9.84009H15.9603C15.7044 9.31541 15.3953 8.75861 15.1395 8.39454C15.5126 8.23393 16.1202 8.03048 16.5572 7.88057C16.845 8.3303 17.2607 9.17621 17.5165 9.74372C17.4419 9.77584 17.3673 9.80797 17.2927 9.84009H18.2201V7.76279H15.3527C14.905 7.76279 14.5319 7.76279 14.2441 7.7735V6.2637C14.5319 6.27441 14.905 6.27441 15.3527 6.27441H18.2201V5.19293H16.9303C16.6211 5.19293 16.3653 5.19293 16.1521 5.20364V4.58259C15.5765 4.95736 14.9796 5.2893 14.3933 5.5677C14.2015 5.17152 13.6898 4.51834 13.3594 4.13286C15.2034 3.43686 17.4846 1.8307 18.4119 0.203125L20.1281 0.524357C20.1281 0.524357 20.0535 0.610019 20.0322 0.642142C20.8956 2.01273 23.1554 3.47969 24.8502 4.10074C24.5304 4.51834 24.0614 5.20364 23.9015 5.5677C23.3366 5.32142 22.7716 5.02161 22.2173 4.65754V5.20364C22.0148 5.19293 21.7377 5.19293 21.4392 5.19293H19.8829V6.27441H22.8143C23.2726 6.27441 23.6457 6.27441 23.9228 6.2637V7.7735C23.6457 7.76279 23.2726 7.76279 22.8143 7.76279H19.8829V9.84009H20.4692C20.8849 9.20833 21.3752 8.27676 21.4818 7.7842L23.0168 8.30888C22.9635 8.37313 22.8782 8.4695 22.8675 8.51233C22.6863 8.87639 22.4092 9.36895 22.1214 9.84009H23.3046ZM17.2927 3.73668H20.9595C20.2773 3.16917 19.6591 2.54812 19.1261 1.89495C18.5931 2.55883 17.9536 3.17988 17.282 3.73668H17.2927Z" fill="black"/>
<path d="M37.6208 6.04961C37.6208 9.14414 35.393 10.7824 32.856 11.275C32.4936 10.836 32.1738 10.3969 31.4916 9.75448C34.5615 9.43325 35.8087 7.81638 35.8087 6.00678C35.8087 4.45415 34.8174 3.28701 33.421 3.11569C33.0266 6.18881 31.4064 10.0864 29.072 10.0864C27.6649 10.0864 26.7695 8.86574 26.7695 7.10967C26.7695 4.24 28.9867 1.43457 32.6962 1.43457C35.2011 1.43457 37.6315 3.14781 37.6315 6.0389L37.6208 6.04961ZM31.7368 3.06215C29.7648 3.23347 28.4217 5.27865 28.4217 6.90622C28.4217 7.77355 28.6456 8.36248 29.1359 8.36248C29.9993 8.36248 31.4383 5.7605 31.7368 3.06215Z" fill="black"/>
<path d="M47.9195 1.89527L49.4118 3.01958L49.252 3.19091C48.6444 6.41394 46.5445 9.62626 43.0375 11.1789C42.6218 10.7399 42.1635 10.2366 41.5346 9.78688C44.6045 8.61973 46.5232 6.52101 47.2054 3.77983H41.4919C41.2468 3.77983 40.895 3.79054 40.7031 3.80125V1.92739C40.895 1.9381 41.2468 1.95952 41.4919 1.95952H47.7063L47.9302 1.88456L47.9195 1.89527ZM50.8509 1.2421C50.8509 1.94881 50.3179 2.4842 49.6144 2.4842C48.9109 2.4842 48.3779 1.95952 48.3779 1.2421C48.3779 0.524679 48.9002 0 49.6144 0C50.3286 0 50.8509 0.524679 50.8509 1.2421ZM50.2859 1.2421C50.2859 0.845911 50.0088 0.556803 49.6144 0.556803C49.22 0.556803 48.9428 0.845911 48.9428 1.2421C48.9428 1.63828 49.22 1.92739 49.6144 1.92739C50.0088 1.92739 50.2859 1.63828 50.2859 1.2421Z" fill="black"/>
<path d="M58.9612 10.4401C58.9612 10.4401 58.9825 10.0225 58.9932 9.65847H54.0579C54.0579 10.0118 54.0792 10.4187 54.0792 10.4401H52.2031C52.2031 10.4401 52.2244 9.91545 52.2244 9.51927V2.15234H60.8372V9.52997C60.8372 9.89404 60.8479 10.408 60.8479 10.4401H58.9612ZM54.0579 3.91912V7.9024H58.9932V3.91912H54.0579Z" fill="black"/>
<path d="M71.4655 5.78211C71.4655 9.43345 70.634 11.1788 68.9285 11.1788C68.3849 11.1788 67.8306 11.0182 67.4256 10.8469C67.351 10.2258 67.2337 9.39062 67.0632 8.83382C67.4789 9.17646 68.1504 9.42274 68.5981 9.42274C69.4295 9.42274 69.8346 8.15923 69.8346 6.10334C69.8346 5.10752 69.6534 4.797 69.2163 4.797C69.0778 4.797 68.7793 4.85054 68.3743 4.90407C67.5322 7.39898 66.4449 10.0973 65.6455 11.2538L64.0039 10.2687C64.9633 8.98372 65.8799 7.06704 66.5515 5.24672C65.6348 5.40734 64.782 5.56795 64.5049 5.57866L64.1851 3.81189C64.9206 3.82259 65.9972 3.70481 67.0845 3.58702C67.2444 3.04093 67.3616 2.50554 67.4575 2.04511C67.5535 1.53114 67.6068 1.09212 67.6174 0.888672L69.5468 1.25274C69.4082 1.54184 69.3443 1.74529 69.2803 1.93803C69.1631 2.38776 69.0138 2.89102 68.8539 3.4157C69.2163 3.38358 69.5468 3.36216 69.8346 3.36216C70.6447 3.36216 71.4761 4.19736 71.4761 5.74999L71.4655 5.78211ZM75.3668 7.58101L73.6506 8.38409C73.3842 6.14617 72.5314 4.41152 71.4974 3.50136L73.0537 2.80536C74.3115 3.88684 75.2496 6.06051 75.3668 7.58101Z" fill="black"/>
<path d="M87.2708 8.00955C87.2708 10.0547 85.4268 11.4789 82.0904 11.5752C81.9838 11.2647 81.4721 10.4402 80.9924 9.94765C83.5294 10.0654 85.512 9.3266 85.512 7.88106C85.512 7.04585 84.8938 6.70321 84.0624 6.70321C82.5914 6.70321 81.0244 7.57053 80.2676 8.65201L78.6367 8.32007C78.8819 6.63896 79.2869 4.81864 79.4682 3.74787C79.4895 3.58725 79.5214 3.39451 79.5428 3.16965L81.4188 3.56584C81.3549 3.66221 81.2802 3.80141 81.2483 3.94061C81.0884 4.51883 80.8326 5.39686 80.63 6.33914C81.7066 5.57889 83.0071 5.16129 84.105 5.16129C86.045 5.16129 87.2708 6.36056 87.2708 7.99884V8.00955ZM84.5953 3.19107C83.5294 3.11611 81.2909 2.53789 79.9905 1.98109L80.5661 0.353516C81.7279 0.878195 83.668 1.38146 85.0324 1.56349L84.606 3.19107H84.5953Z" fill="black"/>
<path d="M100.968 2.79473L100.766 2.94464C99.9132 4.5508 98.5807 6.24262 97.5681 7.02429C97.3336 6.7673 96.6514 6.30687 96.1611 5.9321C96.9712 5.32175 97.9412 4.45443 98.5381 3.38365H91.6095C91.3217 3.38365 90.906 3.39436 90.7461 3.40507V1.58475C90.9486 1.59546 91.3324 1.61688 91.6095 1.61688H99.2523L99.4761 1.52051L100.968 2.79473ZM96.225 4.57221C96.1717 4.71141 96.1504 4.83991 96.1397 5.02194C96.0438 8.0201 94.8713 10.1188 92.5795 11.3181C92.3024 10.9754 91.6415 10.4722 91.0552 10.076C93.4429 9.04805 94.2957 7.15278 94.2957 5.07548C94.2957 4.83991 94.285 4.57221 94.2743 4.40089L96.225 4.56151V4.57221Z" fill="black"/>
<path d="M105.926 4.27232C107.365 4.81841 109.231 5.71786 110.382 6.54236L109.54 8.1271C108.666 7.53818 107.227 6.67085 105.926 6.09263V10.3436C105.926 10.622 105.937 11.0289 105.947 11.2002H103.975C103.975 11.0396 103.997 10.6541 103.997 10.3436V1.87378C103.997 1.50972 103.986 1.17778 103.965 0.920795L105.99 1.02787C105.969 1.13495 105.926 1.40264 105.926 1.83095V4.27232ZM107.685 2.07723L108.506 1.58468C108.879 1.92732 109.486 2.67686 109.721 3.05164L108.858 3.57631C108.602 3.1373 108.101 2.47342 107.685 2.06652V2.07723ZM108.975 1.37052L109.774 0.888672C110.179 1.22061 110.766 1.91662 111.011 2.3128L110.19 2.83748C109.934 2.40917 109.454 1.78812 108.975 1.37052Z" fill="black"/>
<path d="M112.406 9.28368C113.941 7.67752 115.199 4.79714 115.295 2.71983L117.32 3.30876C117.235 3.51221 117.203 3.68353 117.139 3.92981C116.681 6.04994 115.807 8.3414 114.314 10.3009L112.417 9.28368H112.406ZM118.77 3.30876L120.326 2.43073C121.627 3.84415 123.066 7.18496 123.449 9.20872L121.509 9.99039C121.158 7.74176 120.06 5.022 118.77 3.31947V3.30876ZM122.852 2.19516L121.989 2.71983C121.733 2.28082 121.232 1.61694 120.817 1.21004L121.637 0.717487C122.01 1.06014 122.618 1.80968 122.852 2.18445V2.19516ZM124.142 1.44561L123.321 1.97029C123.066 1.54198 122.586 0.920934 122.106 0.503333L122.906 0.0214844C123.311 0.353424 123.897 1.04943 124.142 1.44561Z" fill="black"/>
<path d="M134.932 2.02328C134.825 2.11965 134.708 2.21602 134.527 2.44088C133.855 3.20113 133.12 3.91855 132.288 4.65738V10.3004C132.288 10.643 132.309 11.157 132.32 11.3711H130.338C130.348 11.1784 130.369 10.6751 130.369 10.2897L130.476 5.99585C129.431 6.83105 128.216 7.54847 127.012 8.12669C126.703 7.7305 126.02 6.95955 125.637 6.65973C128.344 5.6425 132.022 2.98698 133.354 0.759766L134.932 2.03399V2.02328Z" fill="black"/>
<path d="M147.486 9.4015L146.121 10.8577C145.215 9.77627 144.138 8.74832 142.827 7.90241C141.708 9.10168 140.312 10.1939 138.617 11.0398C138.265 10.6329 137.785 10.0225 137.199 9.57282C139.853 8.54488 142.678 5.8144 143.542 3.79064H139.256C138.99 3.79064 138.553 3.80135 138.276 3.81206V1.9382C138.542 1.94891 138.969 1.95962 139.256 1.95962H144.501L144.661 1.85254L146.1 2.9019L145.919 3.09464C145.439 4.22966 144.799 5.41822 143.947 6.56394C145.236 7.36703 146.409 8.35214 147.486 9.39079V9.4015Z" fill="black"/>
<path d="M157.356 5.78218C157.356 9.43352 156.525 11.1789 154.819 11.1789C154.276 11.1789 153.721 11.0183 153.316 10.8469C153.242 10.2259 153.124 9.39069 152.954 8.83389C153.37 9.17653 154.041 9.42281 154.489 9.42281C155.32 9.42281 155.725 8.1593 155.725 6.10341C155.725 5.10759 155.544 4.79707 155.107 4.79707C154.968 4.79707 154.67 4.85061 154.265 4.90415C153.423 7.39905 152.336 10.0974 151.536 11.2538L149.895 10.2687C150.854 8.98379 151.771 7.06711 152.442 5.24679C151.525 5.40741 150.673 5.56803 150.396 5.57873L150.076 3.81196C150.811 3.82266 151.888 3.70488 152.975 3.58709C153.135 3.041 153.252 2.50561 153.348 2.04518C153.444 1.53121 153.497 1.09219 153.508 0.888742L155.437 1.25281C155.299 1.54191 155.235 1.74536 155.171 1.9381C155.054 2.38783 154.904 2.89109 154.745 3.41577C155.107 3.38365 155.437 3.36223 155.725 3.36223C156.535 3.36223 157.367 4.19743 157.367 5.75006L157.356 5.78218ZM161.257 7.58108L159.541 8.38416C159.275 6.14624 158.422 4.41159 157.388 3.50143L158.944 2.80543C160.202 3.88691 161.14 6.06058 161.257 7.58108ZM158.22 1.18856L159.04 0.696003C159.413 1.03865 160.021 1.78819 160.255 2.16296L159.392 2.68764C159.136 2.24863 158.635 1.58475 158.22 1.17785V1.18856ZM159.509 0.481848L160.319 0C160.724 0.33194 161.311 1.02794 161.556 1.42413L160.735 1.94881C160.479 1.5205 160 0.89945 159.52 0.481848H159.509Z" fill="black"/>
<path d="M165.63 5.2785C165.63 8.00897 165.098 10.3968 164.117 11.5532C163.808 11.2106 163.189 10.611 162.816 10.2469C163.509 9.33674 164.01 7.59137 164.01 5.23567V1.2631C164.01 1.15602 164 0.920451 163.989 0.78125H173.486C173.476 0.920451 173.476 1.03824 173.476 1.18814V4.26127H165.63V5.2785ZM165.63 2.13043V2.90138H171.866V2.13043H165.63ZM173.508 11.0607V11.6603H171.92V11.2427H167.613V11.6603H166.014C166.025 11.489 166.036 11.2855 166.036 11.0607V6.00663C166.036 5.80318 166.025 5.58903 166.014 5.4177H168.967V4.73241C168.967 4.65745 168.956 4.50754 168.946 4.41117C169.287 4.42188 170.225 4.4433 170.555 4.47542C170.544 4.56108 170.534 4.66816 170.534 4.74311V5.4177H173.518C173.508 5.62115 173.508 5.79247 173.508 6.00663V11.0607ZM167.624 6.72405V7.64491H169.01V6.72405H167.624ZM167.624 9.93637H169.01V8.89772H167.624V9.93637ZM170.502 6.72405V7.64491H171.93V6.72405H170.502ZM171.93 9.93637V8.89772H170.502V9.93637H171.93Z" fill="black"/>
<path d="M182.385 1.73509C181.351 2.93436 180.114 4.17645 179.165 5.17227C178.899 5.45068 178.76 5.58988 178.76 5.78262C178.76 5.94323 178.835 6.0396 179.123 6.318C180.37 7.53868 181.745 8.93069 182.875 10.2692L181.361 11.6505C180.381 10.2156 179.006 8.72724 177.364 7.04613C176.906 6.54286 176.703 6.1788 176.703 5.77191C176.703 5.3436 176.852 5.01166 177.215 4.63689C178.792 3.03073 180.157 1.41386 180.764 0.439453L182.374 1.72438L182.385 1.73509Z" fill="black"/>
</svg>
