<svg width="406" height="72" viewBox="0 0 406 72" fill="none" xmlns="http://www.w3.org/2000/svg">
<g clip-path="url(#clip0_51_7450)">
<path d="M13.9043 40.38L17.3543 41.52C16.4543 43.17 15.4043 44.73 14.1743 46.14C16.0643 47.46 17.7443 48.81 18.9143 49.98L16.0643 52.68C15.0143 51.51 13.4243 50.16 11.6243 48.81C9.25428 50.97 6.55428 52.74 3.79428 54.09C3.25428 53.34 1.93428 51.96 1.15428 51.3C3.94428 50.22 6.52428 48.66 8.74428 46.77C7.03428 45.63 5.29428 44.58 3.70428 43.68L6.25428 41.34C7.81428 42.15 9.55428 43.17 11.2643 44.25C12.3143 43.05 13.1843 41.76 13.9043 40.38ZM4.15428 37.23H23.3543C23.2943 44.43 23.6843 50.1 25.4243 50.1C25.8743 50.07 25.9943 48.51 26.0543 46.08C26.7443 46.89 27.6443 47.79 28.3643 48.3C28.0943 52.05 27.4643 53.64 25.1543 53.64C20.7743 53.64 19.9043 47.91 19.7243 40.23H3.64428V37.74L3.37428 37.98C2.68428 37.38 1.00428 36.24 0.134277 35.73C3.10428 33.48 5.35428 29.61 6.52428 25.47L10.2443 26.25C10.0043 27 9.76428 27.75 9.49428 28.47H27.2243V31.44H8.17428C7.93428 31.92 7.66428 32.4 7.39428 32.85H24.4943V35.73H7.18428V33.21C6.25428 34.74 5.23428 36.09 4.15428 37.23Z" fill="white"/>
<path d="M43.8913 30.03C47.5813 30.54 53.5513 30.39 56.7913 30V33.87C53.1013 34.2 47.6713 34.23 43.8913 33.87V30.03ZM46.2913 42.84C46.0513 43.83 45.9313 44.55 45.9313 45.36C45.9313 46.68 47.0713 47.49 50.1313 47.49C52.8013 47.49 55.0213 47.25 57.6613 46.71L57.7213 50.76C55.7713 51.12 53.3713 51.33 49.9813 51.33C44.8213 51.33 42.3313 49.5 42.3313 46.41C42.3313 45.24 42.5113 44.04 42.8413 42.51L46.2913 42.84ZM39.2713 28.02C39.0313 28.65 38.6413 30.15 38.5213 30.69C38.1313 32.7 37.0813 38.7 37.0813 41.7C37.0813 42.27 37.1113 43.05 37.2013 43.65C37.6513 42.63 38.1313 41.58 38.5513 40.59L40.4113 42.06C39.5713 44.55 38.5813 47.82 38.2513 49.41C38.1613 49.86 38.1013 50.52 38.1013 50.82C38.1013 51.15 38.1313 51.63 38.1613 52.05L34.6813 52.29C34.0813 50.22 33.5113 46.56 33.5113 42.48C33.5113 37.98 34.4413 32.91 34.7713 30.6C34.8613 29.76 35.0413 28.62 35.0713 27.66L39.2713 28.02Z" fill="white"/>
<path d="M73.7084 26.85C73.4684 27.81 73.0783 29.34 72.6283 30.96C74.0983 30.69 75.5084 30.36 76.6784 30L76.7983 33.48C75.4183 33.84 73.5583 34.23 71.5483 34.53C70.1083 38.73 67.5583 43.98 65.1283 47.37L61.4983 45.51C63.8683 42.57 66.2983 38.16 67.6183 34.92C67.0783 34.95 66.5683 34.95 66.0583 34.95C64.8283 34.95 63.5983 34.92 62.3083 34.83L62.0383 31.35C63.3283 31.5 64.9184 31.56 66.0284 31.56C66.9284 31.56 67.8283 31.53 68.7583 31.44C69.1783 29.79 69.5084 27.99 69.5684 26.43L73.7084 26.85ZM72.1483 47.61C72.1483 48.72 73.0783 49.47 74.7283 49.47C76.7983 49.47 77.4283 48.33 77.4283 46.68C77.4283 46.5 77.4283 46.32 77.4283 46.08C76.6483 45.9 75.8384 45.78 74.9984 45.78C73.2584 45.78 72.1483 46.56 72.1483 47.61ZM80.7283 36.18C80.6383 37.44 80.6983 38.7 80.7283 40.02C80.7583 40.89 80.8483 42.33 80.9083 43.83C83.4883 44.79 85.5883 46.29 87.1183 47.67L85.1084 50.88C84.0584 49.92 82.7083 48.66 81.0583 47.67C81.0583 47.76 81.0583 47.88 81.0583 47.97C81.0583 50.76 79.5283 52.92 75.2683 52.92C71.5483 52.92 68.6083 51.27 68.6083 47.97C68.6083 45.03 71.0683 42.78 75.2383 42.78C75.9584 42.78 76.6183 42.84 77.3083 42.9C77.1883 40.68 77.0383 38.01 76.9783 36.18H80.7283ZM85.8884 37.77C84.1484 36.39 80.7283 34.44 78.6883 33.51L80.6083 30.54C82.7683 31.47 86.4883 33.51 88.0183 34.62L85.8884 37.77Z" fill="white"/>
<path d="M100.345 47.46C100.345 48.57 101.575 49.32 103.375 49.32C104.005 49.32 104.575 49.29 105.115 49.23C104.935 47.28 103.825 46.02 102.205 46.02C101.065 46.02 100.345 46.71 100.345 47.46ZM95.2454 28.14C96.0854 28.26 97.1354 28.29 97.9754 28.29C99.5654 28.29 105.985 28.17 107.695 28.02C108.925 27.9 109.615 27.81 109.975 27.69L111.925 30.36C111.235 30.81 110.515 31.23 109.825 31.74C108.205 32.88 105.055 35.52 103.165 37.02C104.155 36.78 105.055 36.69 106.015 36.69C111.115 36.69 114.985 39.87 114.985 44.25C114.985 48.99 111.385 52.74 104.125 52.74C99.9554 52.74 96.8054 50.82 96.8054 47.82C96.8054 45.39 98.9954 43.14 102.175 43.14C105.895 43.14 108.145 45.42 108.565 48.27C110.215 47.4 111.055 46.02 111.055 44.19C111.055 41.49 108.355 39.66 104.815 39.66C100.225 39.66 97.2254 42.09 94.0154 45.75L91.2854 42.93C93.4154 41.22 97.0454 38.16 98.8154 36.69C100.495 35.31 103.615 32.79 105.085 31.5C103.555 31.53 99.4154 31.71 97.8254 31.8C97.0154 31.86 96.0554 31.95 95.3654 32.04L95.2454 28.14Z" fill="white"/>
<path d="M138.138 22.84C137.986 23.562 137.796 25.538 137.72 26.526L137.606 28.464C139.962 28.16 142.28 27.704 144.18 27.172L144.294 32.872C142.204 33.328 139.772 33.708 137.454 33.974C137.416 34.772 137.416 35.57 137.416 36.406V37.888C139.81 37.356 142.204 37.09 144.104 37.09C150.108 37.09 155.086 40.168 155.086 45.792C155.086 50.238 153.034 53.886 146.536 55.52C144.75 55.9 143.04 56.052 141.368 56.204L139.278 50.238C141.102 50.238 142.774 50.2 144.028 49.972C146.954 49.478 149.082 48.072 149.082 45.754C149.082 43.512 147.182 42.144 144.028 42.144C141.938 42.144 139.658 42.448 137.53 42.98C137.606 45.83 137.682 48.49 137.682 49.668C137.682 55.026 135.782 56.356 133.046 56.356C128.942 56.356 123.546 53.012 123.546 48.642C123.546 45.222 127.346 41.65 132.134 39.56C132.096 38.572 132.096 37.584 132.096 36.596V34.43C131.488 34.468 130.956 34.468 130.462 34.468C127.726 34.468 126.206 34.43 124.914 34.278L124.8 28.73C127.118 28.996 128.904 28.996 130.272 28.996C130.842 28.996 131.45 28.996 132.096 28.958V26.564C132.096 25.766 131.944 23.562 131.83 22.84H138.138ZM148.398 26.906C151.438 28.312 155.998 30.744 158.126 32.15L155.39 36.824C153.604 35.418 148.246 32.454 145.928 31.39L148.398 26.906ZM129.208 48.376C129.208 49.288 130.5 50.048 131.222 50.048C131.792 50.048 132.324 49.896 132.324 48.566C132.324 47.844 132.286 46.552 132.248 44.994C130.348 46.058 129.208 47.312 129.208 48.376Z" fill="white"/>
<path d="M175.64 44.88H171.44C172.72 46.72 174.04 48.92 174.56 50.52L171.64 51.8H175.64V44.88ZM186 44.88H181.84V51.8H184.8L182.68 50.92C183.8 49.28 185.16 46.88 186 44.88ZM172.92 31.68H184.92C182.48 29.56 180.32 27.36 178.84 25.32C177.36 27.4 175.32 29.6 172.92 31.68ZM187.92 44.88L191.8 46.28C190.4 48.24 189 50.28 187.8 51.8H195.96V56.76H162.08V51.8H169.24C168.56 50.08 167.4 47.84 166.24 46.12L169.2 44.88H164.2V39.92H175.64V36.72H168.76V34.96C166.96 36.24 165.08 37.4 163.16 38.44C162.44 37.08 160.76 34.92 159.52 33.72C166.36 30.44 172.68 24.4 175.56 19.64H181.64C186 25.88 192.2 30.76 198.6 33.24C197.16 34.72 195.84 36.68 194.76 38.48C192.84 37.44 190.88 36.2 188.96 34.84V36.72H181.84V39.92H193.4V44.88H187.92Z" fill="white"/>
<path d="M234.644 40.586C234.644 48.604 229.932 54.456 220.052 56.128L216.556 50.656C218.152 50.466 219.178 50.238 220.28 49.972C225.106 48.794 228.336 45.412 228.336 40.396C228.336 35.494 225.942 31.998 221.572 30.972C221.078 34.05 220.394 37.356 219.33 40.89C217.088 48.49 213.668 53.582 209.184 53.582C204.472 53.582 200.9 48.49 200.9 41.992C200.9 32.948 208.69 25.272 218.836 25.272C228.526 25.272 234.644 31.96 234.644 40.586ZM206.866 41.384C206.866 44.69 208.006 46.4 209.336 46.4C210.856 46.4 211.996 44.082 213.364 39.674C214.2 37.09 214.846 34.088 215.302 31.124C209.678 32.644 206.866 37.774 206.866 41.384Z" fill="white"/>
<path d="M243.46 60.9321C244.118 59.5221 244.165 58.6291 244.165 57.4541V32.7321C244.165 30.6641 243.883 28.3611 243.554 26.8101H252.484C252.155 28.9721 251.967 30.6641 251.967 32.7321V55.9031C258.876 53.7881 269.122 47.8661 275.232 40.6281L279.274 47.1141C272.647 54.8691 262.824 60.3681 252.108 64.1281C251.403 64.3631 250.181 64.7391 248.865 65.6321L243.46 60.9321Z" fill="white"/>
<path d="M354.077 53.9191C354.312 52.9321 354.5 51.4751 354.5 50.0181V23.0401C354.5 20.7371 354.077 18.6691 354.077 18.6691H362.537C362.537 18.6691 362.161 20.7841 362.161 23.0871V46.2111C365.686 44.7541 369.681 41.3701 372.595 37.2341L376.966 43.5321C373.159 48.3731 366.297 53.5901 361.08 56.2691C359.952 56.8801 359.341 57.4441 358.824 57.8201L354.077 53.9191ZM332.175 52.9791C336.452 50.0181 338.849 45.6001 340.071 41.8871C341.387 38.0331 341.434 29.3851 341.434 23.5101C341.434 21.3011 341.246 19.9381 340.917 18.6691H349.283C349.283 18.6691 348.907 21.1601 348.907 23.4161C348.907 29.1971 348.766 39.0201 347.544 43.7671C346.087 49.2191 343.22 53.8721 339.131 57.5851L332.175 52.9791Z" fill="white"/>
<path d="M315.653 29.006C317.063 31.121 319.037 34.458 320.071 36.573L315.042 38.735C313.538 35.492 312.598 33.612 310.765 31.027L315.653 29.006ZM322.092 26.327C323.549 28.348 325.617 31.591 326.651 33.659L321.763 36.009C320.118 32.766 319.084 31.027 317.251 28.536L322.092 26.327ZM283.035 48.041C284.539 46.819 285.667 45.738 287.218 44.187C289.286 42.119 292.717 37.842 296.101 33.8C299.062 30.275 302.164 29.758 306.065 33.424C309.402 36.573 312.739 40.051 315.606 43.153C318.755 46.537 323.643 51.754 327.262 55.608L320.964 62.376C317.909 58.569 314.055 53.681 311.423 50.532C308.65 47.195 304.608 42.683 303.057 41.085C301.694 39.722 300.66 39.769 299.485 41.32C297.84 43.482 294.879 47.806 293.093 50.344C291.965 51.989 290.79 53.775 289.897 55.138L283.035 48.041Z" fill="white"/>
<path fill-rule="evenodd" clip-rule="evenodd" d="M339.496 0.585138L352.647 0.144843L346.453 11.754L343.534 7.06865C321.403 18.5485 287.084 25.1948 260.838 24.7861L260.873 22.5073C286.772 22.9106 320.599 16.3451 342.326 5.12803L339.496 0.585138Z" fill="white"/>
<path d="M393.58 26.94C393.43 27.69 393.22 28.68 392.83 29.94C395.68 29.79 398.68 29.52 401.32 29.07L401.29 32.55C398.44 32.97 394.75 33.21 391.51 33.3C391 34.41 390.4 35.49 389.8 36.36C390.58 36 392.2 35.76 393.19 35.76C395.02 35.76 396.52 36.54 397.18 38.07C398.74 37.35 400 36.84 401.23 36.3C402.4 35.79 403.45 35.31 404.56 34.74L406.06 38.22C405.1 38.49 403.51 39.09 402.49 39.48C401.14 40.02 399.43 40.68 397.6 41.52C397.63 43.2 397.69 45.42 397.72 46.8H394.12C394.21 45.9 394.24 44.46 394.27 43.14C392.02 44.43 390.82 45.6 390.82 47.1C390.82 48.75 392.23 49.2 395.17 49.2C397.72 49.2 401.05 48.87 403.69 48.36L403.57 52.23C401.59 52.5 397.9 52.74 395.08 52.74C390.37 52.74 386.89 51.6 386.89 47.73C386.89 43.89 390.49 41.49 393.91 39.72C393.46 38.97 392.65 38.7 391.81 38.7C390.13 38.7 388.27 39.66 387.13 40.77C386.23 41.67 385.36 42.75 384.34 44.07L381.13 41.67C384.28 38.76 386.41 36.09 387.76 33.39C387.61 33.39 387.49 33.39 387.37 33.39C386.14 33.39 383.95 33.33 382.3 33.21V29.7C383.83 29.94 386.05 30.06 387.58 30.06C388.03 30.06 388.54 30.06 389.02 30.06C389.35 28.86 389.56 27.69 389.62 26.61L393.58 26.94Z" fill="white"/>
</g>
<defs>
<clipPath id="clip0_51_7450">
<rect width="406" height="72" fill="white"/>
</clipPath>
</defs>
</svg>
