<svg width="232" height="72" viewBox="0 0 232 72" fill="none" xmlns="http://www.w3.org/2000/svg">
<path d="M0 36C0 16.1178 16.1178 0 36 0V0C55.8822 0 72 16.1178 72 36V36C72 55.8822 55.8822 72 36 72V72C16.1178 72 0 55.8822 0 36V36Z" fill="white"/>
<path d="M21.1895 39.5001H24.3795V36.7721H21.1895V39.5001ZM24.3795 31.5581H20.0235C19.5615 32.3721 19.0555 33.1201 18.5495 33.8021H24.3795V31.5581ZM34.9835 39.5001V42.5801H27.6795V47.0901H24.3795V42.5801H14.5675V39.5001H17.9775V34.5501C17.7135 34.8581 17.4495 35.1661 17.1855 35.4301C16.5695 34.8581 15.2055 33.8021 14.4355 33.3401C16.3495 31.6901 17.9995 28.8961 18.8795 26.1021L22.1575 26.9381C21.9815 27.4441 21.7835 27.9721 21.5635 28.4781H33.6855V31.5581H27.6795V33.8021H33.1575V36.7721H27.6795V39.5001H34.9835Z" fill="#0B5CD2"/>
<path d="M55.5415 27.4441L57.6975 28.0601C57.1695 33.3181 55.9815 37.4761 54.0455 40.7321C55.2335 42.2061 56.7076 43.4161 58.4676 44.2741C57.7196 44.8901 56.6636 46.2101 56.1796 47.0901C54.5076 46.1661 53.0995 44.9781 51.9335 43.5921C50.6795 44.9561 49.2495 46.1221 47.5775 47.0681C47.1595 46.3201 46.3675 45.2201 45.6635 44.5381V47.0681H42.5615V41.7441C40.9115 42.2061 39.2615 42.6241 37.8315 42.9981L37.1495 39.7201C37.5895 39.6321 38.0955 39.5441 38.6235 39.4341V28.7641H41.5935V38.7961L42.5615 38.5541V26.3661H45.6635V44.1201C47.3135 43.2841 48.7215 42.0961 49.9315 40.6221C48.5235 38.0261 47.5775 34.9461 46.8515 31.4481L49.9095 30.8761C50.3495 33.2301 51.0315 35.4521 51.9775 37.4101C52.9455 35.4521 53.6495 33.1861 54.0895 30.7001H46.3235V27.5541H54.9696L55.5415 27.4441Z" fill="#0B5CD2"/>
<path d="M80 36C80 16.1178 96.1178 0 116 0V0C135.882 0 152 16.1178 152 36V36C152 55.8822 135.882 72 116 72V72C96.1178 72 80 55.8822 80 36V36Z" fill="white"/>
<path d="M106.69 30.3161V32.1861H103.896V27.6541H107.79V25.1901H110.936V27.6541H114.962V32.1861H112.014V30.3161H106.69ZM96.6576 40.4581L99.6276 41.1841C98.9456 43.0761 97.7576 44.9901 96.5696 46.1561C95.9976 45.6501 94.7436 44.8141 94.0396 44.4181C95.1836 43.4721 96.1516 41.9541 96.6576 40.4581ZM100.332 30.1181V28.5561H98.3956V30.1181H100.332ZM100.332 34.0341V32.4501H98.3956V34.0341H100.332ZM100.332 37.9501V36.3441H98.3956V37.9501H100.332ZM103.368 40.4581H102.092C103.016 41.5801 103.896 43.0321 104.314 44.0661L101.652 45.3421C101.3 44.2861 100.398 42.6581 99.5176 41.4921L101.894 40.4581H95.5136V26.0481H103.368V40.4581ZM115.182 33.3081V36.2341H110.958V42.9441C110.958 44.3521 110.716 45.1221 109.77 45.5841C108.868 46.0461 107.702 46.0901 106.206 46.0901C106.096 45.2321 105.656 43.9781 105.238 43.1641C106.052 43.2081 107.086 43.2081 107.394 43.2081C107.68 43.2081 107.79 43.1201 107.79 42.8561V36.2341H103.786V33.3081H115.182Z" fill="#0B5CD2"/>
<path d="M125.928 38.9841H123.618C124.322 39.9961 125.048 41.2061 125.334 42.0861L123.728 42.7901H125.928V38.9841ZM131.626 38.9841H129.338V42.7901H130.966L129.8 42.3061C130.416 41.4041 131.164 40.0841 131.626 38.9841ZM124.432 31.7241H131.032C129.69 30.5581 128.502 29.3481 127.688 28.2261C126.874 29.3701 125.752 30.5801 124.432 31.7241ZM132.682 38.9841L134.816 39.7541C134.046 40.8321 133.276 41.9541 132.616 42.7901H137.104V45.5181H118.47V42.7901H122.408C122.034 41.8441 121.396 40.6121 120.758 39.6661L122.386 38.9841H119.636V36.2561H125.928V34.4961H122.144V33.5281C121.154 34.2321 120.12 34.8701 119.064 35.4421C118.668 34.6941 117.744 33.5061 117.062 32.8461C120.824 31.0421 124.3 27.7201 125.884 25.1021H129.228C131.626 28.5341 135.036 31.2181 138.556 32.5821C137.764 33.3961 137.038 34.4741 136.444 35.4641C135.388 34.8921 134.31 34.2101 133.254 33.4621V34.4961H129.338V36.2561H135.696V38.9841H132.682Z" fill="#0B5CD2"/>
<path d="M160 36C160 16.1178 176.118 0 196 0V0C215.882 0 232 16.1178 232 36V36C232 55.8822 215.882 72 196 72V72C176.118 72 160 55.8822 160 36V36Z" fill="white"/>
<path d="M181.612 15.95L180.16 18.348C179.148 17.82 177.036 17.028 175.54 16.588L176.926 14.432C178.356 14.762 180.49 15.444 181.612 15.95ZM180.732 28.798V29.436H189.444V28.798H180.732ZM180.732 26.444V27.06H189.444V26.444H180.732ZM180.732 24.09V24.706H189.444V24.09H180.732ZM184.626 22.242H190.698C189.4 21.714 188.52 21.054 187.926 20.306C187.222 21.098 186.188 21.736 184.626 22.242ZM192.678 31.262H189.422C191.49 32.098 193.8 33.066 195.164 33.77L191.38 35.156C190.236 34.408 188.036 33.286 185.902 32.428L187.992 31.262H182.118L184.12 32.164C182.294 33.396 179.412 34.54 177.146 35.178C176.574 34.54 175.474 33.396 174.77 32.846C176.728 32.516 178.862 31.922 180.358 31.262H177.652V22.242H182.426C182.118 21.67 181.678 20.988 181.282 20.57L181.348 21.054C179.478 21.604 177.476 22.132 175.826 22.572L174.638 19.8C176.288 19.536 178.708 19.03 181.062 18.546L181.282 20.482C184.626 19.954 185.77 19.096 186.254 17.776H185.088C184.604 18.37 184.054 18.942 183.416 19.47C182.844 18.92 181.766 18.26 181.018 17.974C182.602 16.896 183.658 15.466 184.252 14.19L187.046 14.652C186.892 14.96 186.716 15.268 186.562 15.576H192.502L192.964 15.488L195.054 15.994C194.504 17.226 193.734 18.59 193.052 19.448L190.588 18.744C190.786 18.48 191.006 18.128 191.204 17.776H189.356C189.84 19.03 191.094 19.998 195.494 20.438C194.9 21.076 194.218 22.286 193.932 23.078C193.492 23.012 193.074 22.924 192.678 22.836V31.262Z" fill="#0B5CD2"/>
<path d="M208.572 26.928H205.712C205.404 27.412 205.074 27.852 204.722 28.226H208.572V26.928ZM210.596 18.282H205.734C206.02 18.898 206.262 19.558 206.35 20.064L206.02 20.152H210.024C210.222 19.602 210.442 18.92 210.596 18.282ZM202.324 22.88V23.826C202.324 24.706 202.302 25.718 202.192 26.774C203.248 25.784 204.106 24.354 204.568 22.946L207.406 23.606C207.296 23.914 207.186 24.2 207.054 24.508H208.572V23.078H211.718V24.508H216.8V26.928H211.718V28.226H216.162V30.624H211.718V32.076H217.9V34.694H202.544V32.076H208.572V30.624H204.172V28.49C203.644 28.094 202.786 27.588 202.148 27.258C201.884 29.964 201.224 32.934 199.75 35.024C199.266 34.452 197.924 33.33 197.286 32.978C199.112 30.316 199.266 26.444 199.266 23.804V20.152H203.116C202.962 19.558 202.72 18.876 202.456 18.326L202.632 18.282H199.156V15.598H206.482V14.168H209.694V15.598H216.998V18.282H214.358C213.94 18.964 213.522 19.602 213.17 20.152H218.098V22.88H202.324Z" fill="#0B5CD2"/>
<path d="M191.798 37.476L194.834 38.708C193.162 40.974 190.83 42.91 188.52 44.274C188.014 43.57 187.09 42.624 186.276 42.008C188.278 41.018 190.632 39.258 191.798 37.476ZM179.918 45.616H181.876V41.392H179.918V45.616ZM186.892 48.564H185V58.068H181.876V48.564H179.896C179.764 52.128 179.148 55.67 176.574 58.288C176.068 57.628 174.946 56.55 174.22 56.088C176.244 53.998 176.772 51.314 176.904 48.564H174.594V45.616H176.948V41.392H175.012V38.444H186.716V41.392H185V45.616H186.98V48.146C188.872 47.046 191.028 45.308 192.15 43.548L195.076 44.758C193.404 47.068 191.072 49.136 188.85 50.588C188.41 49.972 187.618 49.18 186.892 48.564ZM192.458 49.356L195.516 50.522C193.646 53.822 190.874 56.308 187.706 58.024C187.222 57.21 186.298 56.11 185.484 55.428C188.278 54.174 191.028 52.04 192.458 49.356Z" fill="#0B5CD2"/>
<path d="M204.744 48.388H202.478C202.434 49.51 202.346 50.72 202.192 51.952C202.852 52.018 203.424 52.04 203.776 52.04C204.062 52.04 204.26 51.974 204.436 51.754C204.612 51.49 204.7 50.588 204.744 48.388ZM213.918 44.23L217.152 45C216.228 47.882 214.952 50.478 213.368 52.7C213.852 53.954 214.402 54.68 214.93 54.68C215.37 54.68 215.634 53.58 215.744 50.896C216.47 51.644 217.592 52.392 218.45 52.722C217.966 57.012 216.932 57.936 214.666 57.936C213.214 57.936 212.026 56.99 211.08 55.406C210.09 56.396 208.99 57.276 207.824 58.024C207.362 57.342 206.196 56 205.514 55.384C207.098 54.526 208.506 53.404 209.694 52.062C208.946 49.598 208.484 46.562 208.22 43.394H202.5V45.484H207.89C207.89 45.484 207.868 46.254 207.868 46.606C207.802 51.094 207.692 53.118 207.164 53.822C206.68 54.46 206.174 54.68 205.514 54.812C204.92 54.922 203.996 54.944 202.984 54.944C202.94 54.042 202.61 52.832 202.17 52.04C201.862 54.372 201.246 56.726 200.124 58.42C199.574 57.782 198.122 56.594 197.396 56.22C199.024 53.624 199.134 49.73 199.134 46.848V40.248H208.022C207.978 39.236 207.956 38.224 207.956 37.212H211.322C211.3 38.224 211.3 39.236 211.344 40.248H213.83C213.148 39.72 212.312 39.148 211.63 38.73L213.566 36.816C214.688 37.41 216.228 38.378 216.998 39.104L215.898 40.248H218.23V43.394H211.52C211.674 45.198 211.916 46.936 212.224 48.454C212.906 47.156 213.478 45.748 213.918 44.23Z" fill="#0B5CD2"/>
</svg>
