<svg width="660" height="121" viewBox="0 0 660 121" fill="none" xmlns="http://www.w3.org/2000/svg">
<path d="M449 49.1376C449.814 52.7944 450.221 57.1827 450.221 61.4897C450.221 67.5845 449.489 89.1195 449.489 99.2775C449.489 113.336 458.282 119.675 472.367 119.675C491.175 119.675 503.143 108.623 508.191 100.903L499.317 90.0134C493.455 99.0337 484.987 106.347 472.449 106.347C466.994 106.347 462.515 103.91 462.515 96.1895C462.515 87.3317 463.085 69.9412 463.493 61.4897C463.655 57.9953 464.144 53.1195 464.714 49.3001L449 49.1376Z" fill="white"/>
<path d="M549.471 100.171C549.471 105.372 548.086 107.404 543.283 107.404C538.886 107.404 535.059 106.51 535.059 102.853C535.059 99.9276 538.316 98.2211 543.446 98.2211C545.481 98.2211 547.516 98.3836 549.471 98.7087V100.171ZM586.353 103.747C580.98 98.6274 572.349 93.1014 562.09 90.0134C561.765 84.8125 561.439 79.2865 561.276 74.817C567.708 74.6545 576.909 74.3294 583.422 73.7606L582.934 62.1398C576.502 62.7899 567.545 63.115 561.113 63.2775C561.113 61.7335 561.113 60.1895 561.195 58.7267C561.358 55.1511 561.602 51.1692 562.009 48.4874H547.354C547.924 50.7628 548.168 54.0947 548.331 58.7267C548.412 62.1398 548.494 65.878 548.494 70.8351C548.494 74.817 548.738 81.3994 549.063 87.5755C547.842 87.4942 546.539 87.413 545.318 87.413C530.093 87.413 522.358 94.4017 522.358 103.503C522.358 115.368 532.535 119.268 544.26 119.268C559.322 119.268 562.823 111.873 562.823 104.397V103.259C569.174 106.673 574.629 111.142 578.863 115.368L586.353 103.747Z" fill="white"/>
<path d="M646.077 87.6567C646.077 99.2775 633.783 105.129 613.51 107.323L620.512 119.512C643.798 116.506 660 105.291 660 88.1443C660 74.9795 650.8 67.2595 637.284 67.2595C627.758 67.2595 618.802 69.4536 612.696 70.7538C610.009 71.3227 606.101 71.9728 603.17 72.2166L606.752 86.0315C609.276 85.1376 612.859 83.6748 615.138 83.0247C618.884 81.887 626.944 79.124 635.574 79.124C642.739 79.124 646.077 83.1872 646.077 87.6567ZM615.627 47.6748L613.754 59.3768C623.117 61.0021 641.355 62.5461 651.044 63.1962L652.998 51.2504C644.123 51.2504 625.316 49.7064 615.627 47.6748Z" fill="white"/>
<path d="M275.338 29.4473H246.303V39.9016H275.338V29.4473ZM296.873 27.2209C293.316 34.5777 286.201 43.8704 278.222 49.9687V42.7088H241.4V53.6471H273.607C275.914 56.7446 278.799 61.7782 280.145 65.2629C289.951 59.2614 298.892 48.8071 303.699 40.4824C308.602 48.7103 317.928 58.971 326.869 64.3917C328.791 60.2294 331.676 55.0022 334.271 51.6143C324.85 47.2583 315.813 37.288 309.66 27.2209L296.873 27.2209ZM311.294 66.7149C305.237 74.846 293.22 82.2028 282.74 86.2683C285.913 88.8819 289.47 92.9474 291.393 95.9482C303.41 90.3339 315.332 82.2028 323.504 71.9421L311.294 66.7149ZM302.257 53.0663C298.027 59.1646 289.566 65.4565 282.548 69.0381C285.625 71.2645 289.278 74.846 291.297 77.4596C299.757 72.7165 308.314 65.8437 314.37 57.9062L302.257 53.0663ZM275.53 56.551H246.015V67.0053H275.53V56.551ZM246.015 80.3636H275.53V69.9093H246.015V80.3636ZM263.897 94.4962V102.724H257.359V94.4962H263.897ZM275.722 83.5579H245.726V117.147H257.359V113.662H275.722V83.5579ZM318.12 82.5899C309.852 94.593 293.989 102.531 277.741 106.79C281.106 110.081 284.663 115.114 286.49 118.793C304.276 112.598 320.331 103.111 330.714 88.1075L318.12 82.5899Z" fill="white"/>
<path d="M405.556 46.4839C414.689 44.3544 424.495 41.5472 432.667 37.772L421.515 27.6081C416.131 30.6089 407.959 33.8033 399.787 36.0297L392.288 33.9001V67.6829C392.288 77.1692 391.808 88.4947 387.481 98.465V97.981H355.851V83.7515C357.389 86.8491 359.216 90.7211 359.985 93.625C362.773 91.1083 365.369 87.5267 367.676 83.5579V96.3354H379.021V79.0084C380.751 81.5252 382.29 84.0419 383.347 85.8811L390.654 76.5884C388.827 74.7492 381.521 67.8765 379.021 65.9405V65.6501H389.404V54.0343H379.021V51.1303L385.558 53.0663C387.481 48.9039 389.885 42.2248 392.288 36.32L381.521 33.9001C381.04 37.5784 380.078 42.2248 379.021 46.3871V27.8985H367.676V43.6768C367.1 40.3856 366.234 36.9008 365.177 33.9001L356.909 36.6104C358.447 41.8376 359.601 48.7103 359.601 53.1631L367.676 50.5495V54.0343H357.293V65.6501H366.811C364.023 71.3613 360.081 77.1692 355.851 81.0412V29.8345H343.834V116.566H355.851V109.984H382.578C385.655 112.114 389.404 115.889 390.846 118.502C402.767 105.725 405.171 85.5907 405.556 71.2645H412.189V118.406H425.36V71.2645H432.667V58.2934H405.556V46.4839Z" fill="white"/>
<circle cx="284" cy="9" r="9" fill="white"/>
<circle cx="384" cy="9" r="9" fill="white"/>
<path d="M25.2633 101.561C25.2633 105.709 23.0487 106.848 18.8655 106.848C14.6822 106.848 11.9755 105.465 11.9755 102.781C11.9755 100.504 14.6002 98.7958 19.1115 98.7958C21.1621 98.7958 23.2127 98.9584 25.1813 99.2838C25.2633 100.26 25.2633 100.992 25.2633 101.561ZM59.3032 103.107C54.5458 99.2024 46.9996 94.0783 37.0747 91.1503C36.9107 88.5476 36.7466 85.8635 36.5826 83.3422C44.3748 83.0982 50.3626 82.6102 57.4986 81.8781L57.4166 70.4099C51.1828 71.142 44.7029 71.874 36.3365 72.2806L36.4185 65.6112C44.2108 65.2859 50.5266 64.6352 55.366 64.1472L55.12 53.0043C48.1479 54.0617 42.5703 54.631 36.5826 54.9563L36.6646 52.5163C36.7466 50.6456 36.9927 48.3682 37.2388 46.6602H23.9509C24.279 48.4496 24.4431 51.0523 24.4431 52.5163V55.2817H20.4239C15.6665 55.2817 8.85856 54.7123 3.60904 53.7363L3.69107 64.7978C8.36642 65.5299 15.5845 66.0179 20.5059 66.0179H24.3611L24.279 72.606H20.67C16.8969 72.606 5.82369 72.0366 1.55845 71.0606L1.47643 82.5288C6.64392 83.1795 16.1587 83.5862 20.5059 83.5862H24.4431L24.6891 88.9543C23.3768 88.8729 22.0644 88.7916 20.752 88.7916C7.79226 88.7916 0 94.8917 0 103.513C0 112.46 7.13606 117.828 20.834 117.828C31.5791 117.828 37.7309 112.704 37.7309 105.14V103.513C43.3085 106.36 48.23 110.183 52.2491 114.005L59.3032 103.107Z" fill="white"/>
<path d="M150.007 52.0283C148.612 49.1816 146.48 45.7655 144.429 42.6748L136.309 45.9282C138.523 48.9376 140.246 52.1096 141.886 55.363L150.007 52.0283ZM102.023 87.5716C102.023 83.9115 104.73 82.3661 107.19 82.3661C108.995 82.3661 110.635 83.0982 111.62 84.4809C112.522 90.6623 109.815 92.533 107.19 92.533C104.648 92.533 102.023 90.4996 102.023 87.5716ZM138.359 54.5497C136.965 51.703 134.914 48.1242 132.864 45.1148L124.825 48.3682C126.794 51.2963 128.27 54.0617 129.747 56.9897L121.873 57.0711V56.1764C121.955 54.7123 122.283 49.7509 122.529 48.2056H108.339C108.667 49.7509 108.995 53.167 109.241 56.2577L109.323 57.1524C98.8239 57.3151 84.4697 57.6404 75.037 57.5591L75.3651 69.2713C85.29 68.7832 97.2654 68.2952 109.487 68.1326L109.569 72.1993C108.913 72.118 108.257 72.118 107.518 72.118C98.0857 72.118 90.2114 78.0554 90.2114 87.8156C90.2114 98.2264 98.6598 103.269 104.648 103.269C105.14 103.269 105.632 103.269 106.124 103.188C101.367 106.929 94.5586 108.881 87.5046 110.264L97.9216 120.675C118.264 115.225 124.989 101.236 124.989 90.9063C124.989 86.5142 123.923 82.5288 121.791 79.2754C121.791 75.9407 121.791 71.874 121.709 68.0512C131.961 68.1326 139.59 68.2952 144.429 68.5392L144.593 56.9897C142.132 56.9084 137.375 56.9897 132.29 56.9897L138.359 54.5497Z" fill="white"/>
<path d="M164.51 48.7749C164.428 51.7843 163.936 55.4444 163.608 57.8844C162.706 63.8218 160.409 78.9501 160.409 91.313C160.409 102.212 162.049 111.647 163.772 117.096L174.845 116.364C174.763 115.063 174.763 113.599 174.763 112.704C174.763 111.891 175.009 110.02 175.255 108.881C176.24 104.245 178.7 96.1117 181.161 88.8729L175.173 84.1555C174.107 86.5142 173.123 88.0596 172.138 90.4183C172.056 90.093 172.056 88.7916 172.056 88.5476C172.056 81.0648 174.845 62.2765 175.829 58.1284C176.158 56.6644 177.306 51.703 178.044 49.9136L164.51 48.7749ZM205.276 98.7958C205.276 103.188 203.718 105.303 199.78 105.303C196.335 105.303 193.465 104.327 193.465 101.48C193.465 98.9584 196.007 97.4944 199.78 97.4944C201.667 97.4944 203.471 97.7384 205.276 98.2264V98.7958ZM233 101.642C229.391 98.3078 224.388 94.0784 217.415 91.2316C217.169 86.5142 216.759 80.7395 216.595 73.4193C220.86 73.094 224.88 72.606 228.489 72.118V59.9991C224.798 60.7311 220.778 61.3818 216.677 61.7885C216.759 58.4537 216.841 55.7697 216.923 54.2243C217.005 52.435 217.169 50.4016 217.415 48.8562H203.389C203.718 50.5643 204.046 53.167 204.046 54.387C204.128 55.851 204.128 58.8604 204.21 62.6018C202.651 62.6831 201.175 62.6831 199.616 62.6831C194.695 62.6831 189.856 62.4391 185.098 61.9511L185.18 73.582C190.02 73.9073 194.859 74.07 199.698 74.07C201.175 74.07 202.733 74.07 204.292 73.9887C204.374 79.0314 204.62 83.9928 204.866 88.2223C203.553 88.1409 202.159 88.0596 200.765 88.0596C189.445 88.0596 181.981 93.8343 181.981 102.863C181.981 111.972 189.527 116.852 200.929 116.852C211.592 116.852 216.595 112.135 217.662 104.571C220.45 106.604 223.321 109.044 226.356 111.891L233 101.642Z" fill="white"/>
</svg>
