<?xml version="1.0" encoding="utf-8"?>
<svg version="1.1" xmlns="http://www.w3.org/2000/svg" xmlns:xlink="http://www.w3.org/1999/xlink" x="0px"
	 y="0px" viewBox="0 0 494 80"  style="enable-background:new 0 0 494 80;" xml:space="preserve">
<path d="M334.8,22.6V6.8H360V0.1h16.8v6.7H403c-0.9,3.6-2.2,7.6-4.8,12c-2.6,4.4-5.5,8.3-8.8,11.8
	c-3.2,3.5-6,6.3-8.3,8.5c4,2.9,7.7,5.3,11.2,7.1c3.5,1.8,6.3,3.2,8.5,4c2.2,0.8,3.1,1.2,3.3,1.2v17.5c-0.1,0-1.4-0.5-4.2-1.4
	c-2.8-1-6.3-2.6-10.7-5c-4.4-2.3-8.6-5-12.8-8.1v25.6h-15.9V55.7c-4.7,3.1-9.3,5.6-13.8,7.6s-8.2,3.4-10.9,4.3
	c-2.8,0.9-2.8,0.8-3,0.8V52.5c0.1,0,0.3-0.1,3.5-1.2c3.2-1.1,7.1-2.9,12-5.4c4.8-2.5,9.6-5.7,14.5-9.5c4.9-3.9,9.3-8.1,13.3-13.7
	L334.8,22.6L334.8,22.6z M376.8,6.8H403c-0.9,3.6-2.8,8.5-4.8,12 M237.2,79.9V63l1.2-0.7c8.4-4.9,17.8-19.3,19-39.7h-20.2V6.8h20.3
	V0.1h16.9v6.7h33.8v48.6c0,7.2-1.7,12.7-5,16.1c-3.3,3.5-8.6,5.3-15.6,5.3h-8.8V60.7h6.1c2.3,0,4-0.4,4.8-1.3c0.8-0.9,1.3-2.6,1.3-5
	V22.6h-16.9c-1,13.2-4.7,29.5-10.8,37.8c-6.8,9.2-14.5,15.4-23,18.4L237.2,79.9L237.2,79.9z M428.5,4.9H494v50.7
	c0,7.2-1.7,12.7-5,16.1c-3.3,3.5-8.6,5.3-15.6,5.3h-45V61h42.3c2.3,0,4-0.4,4.8-1.3c0.8-0.9,1.3-2.6,1.3-5V20.7h-48.4 M138.5,72.4
	c11.7-3.4,22.1-11.6,29.4-19.4c7.1-7.4,12.7-17.4,16.4-28.9V80h18V22.4H213V6.6h-10.7V0h-18v6.6h-45.9v15.9h28
	c-6,16.7-15,27.5-27.2,33.1l-0.6,0.3" fill="#030E1A"/>
<path d="M106.4,32.9c0-16.1-13.1-29.2-29.1-29.2c-10,0-18.8,5.1-24.1,12.8C48,8.8,39.1,3.7,29.1,3.7
	C13.1,3.7,0,16.8,0,32.9c0,9.9,5,18.7,12.6,24c-4.4,2.1-7.2,3.8-7.5,4l11.9,11.9c0.2-0.1,16.6-10.7,36.3-10.7s36.1,10.6,36.3,10.7
	l11.9-11.9c-0.3-0.2-3.1-1.9-7.5-4C101.4,51.6,106.4,42.8,106.4,32.9L106.4,32.9z M77.3,20.7c6.7,0,12.1,5.5,12.1,12.2
	c0,6.7-5.4,12.2-12.1,12.2c-6.7,0-12.1-5.5-12.1-12.2C65.1,26.2,70.6,20.7,77.3,20.7z M29.1,20.7c6.7,0,12.1,5.5,12.1,12.2
	c0,6.7-5.4,12.2-12.1,12.2c-6.7,0-12.1-5.5-12.1-12.2C17,26.2,22.4,20.7,29.1,20.7z" fill="#006EE4"/>
</svg>
