<svg xmlns="http://www.w3.org/2000/svg" width="200" height="114" fill="none"><path stroke="#005DCF" stroke-linecap="round" stroke-linejoin="round" stroke-width="2" d="M136.46 52.902 29.91 86.472l-10.99-5.01M19.79 98.972l108.49-34.24M161.63 63.522 54.58 97.312M145.45 78.052l-100.1 31.95M181.31 91.122l-18.69-9.29-83.33 26.3M16.6 81.832c1.436 0 2.6-.837 2.6-1.87 0-1.032-1.164-1.87-2.6-1.87-1.436 0-2.6.838-2.6 1.87 0 1.033 1.164 1.87 2.6 1.87ZM51.72 100.192c1.436 0 2.6-.837 2.6-1.87 0-1.033-1.164-1.87-2.6-1.87-1.436 0-2.6.837-2.6 1.87 0 1.033 1.164 1.87 2.6 1.87ZM148.05 79.422c1.436 0 2.6-.837 2.6-1.87 0-1.033-1.164-1.87-2.6-1.87-1.436 0-2.6.837-2.6 1.87 0 1.033 1.164 1.87 2.6 1.87ZM164.47 64.402c1.436 0 2.6-.837 2.6-1.87 0-1.033-1.164-1.87-2.6-1.87-1.436 0-2.6.837-2.6 1.87 0 1.033 1.164 1.87 2.6 1.87ZM138.72 53.442c1.436 0 2.6-.837 2.6-1.87 0-1.033-1.164-1.87-2.6-1.87-1.436 0-2.6.837-2.6 1.87 0 1.033 1.164 1.87 2.6 1.87ZM130.3 65.432c1.436 0 2.6-.837 2.6-1.87 0-1.033-1.164-1.87-2.6-1.87-1.436 0-2.6.837-2.6 1.87 0 1.033 1.164 1.87 2.6 1.87Z"/><path stroke="#005DCF" stroke-linecap="round" stroke-linejoin="round" stroke-width="2" d="M182.91 94.452c1.436 0 2.6-.837 2.6-1.87 0-1.033-1.164-1.87-2.6-1.87-1.436 0-2.6.837-2.6 1.87 0 1.033 1.164 1.87 2.6 1.87ZM42.75 112.992c1.436 0 2.6-.837 2.6-1.87 0-1.033-1.164-1.87-2.6-1.87-1.436 0-2.6.837-2.6 1.87 0 1.033 1.164 1.87 2.6 1.87ZM16.6 101.762c1.436 0 2.6-.837 2.6-1.87 0-1.033-1.164-1.87-2.6-1.87-1.436 0-2.6.837-2.6 1.87 0 1.033 1.164 1.87 2.6 1.87ZM76.69 111.122c1.436 0 2.6-.837 2.6-1.87 0-1.033-1.164-1.87-2.6-1.87-1.436 0-2.6.837-2.6 1.87 0 1.033 1.164 1.87 2.6 1.87Z"/><path fill="#fff" stroke="#005DD0" stroke-linecap="round" stroke-linejoin="round" stroke-width="2" d="M127.69 89.513c1.33-1.48 1.92-3.02 1.72-4.45v-7.5l-82.46-6.51v7.71h.02c-.18 2.17 1.16 4.19 4.11 5.61l44.71 21.649c6.34 3.07 17.69 2.23 25.37-1.88 4.16-2.23 6.38-4.96 6.53-7.48h.01v-7.14l-.01-.01Z"/><path fill="#fff" d="M124.83 83.463c5.73-3.62 6.24-8.36.92-10.94-2.4-1.16-5.6-1.69-9.02-1.65 3.82-4.67 2.81-9.65-3.46-12.68-8.76-4.24-24.45-3.08-35.05 2.6-.01 0-.03.01-.04.02-6.44-2.71-17.28-1.8-24.69 2.17-7.67 4.11-8.76 9.93-2.42 12.99l44.71 21.65c6.34 3.07 17.69 2.23 25.37-1.88 7.11-3.81 8.56-9.08 3.68-12.28Z"/><path fill="url(#a)" d="M124.83 83.463c5.73-3.62 6.24-8.36.92-10.94-2.4-1.16-5.6-1.69-9.02-1.65 3.82-4.67 2.81-9.65-3.46-12.68-8.76-4.24-24.45-3.08-35.05 2.6-.01 0-.03.01-.04.02-6.44-2.71-17.28-1.8-24.69 2.17-7.67 4.11-8.76 9.93-2.42 12.99l44.71 21.65c6.34 3.07 17.69 2.23 25.37-1.88 7.11-3.81 8.56-9.08 3.68-12.28Z"/><mask id="c" width="84" height="45" x="46" y="55" maskUnits="userSpaceOnUse" style="mask-type:alpha"><path fill="#fff" d="M124.83 83.463c5.73-3.62 6.24-8.36.92-10.94-2.4-1.16-5.6-1.69-9.02-1.65 3.82-4.67 2.81-9.65-3.46-12.68-8.76-4.24-24.45-3.08-35.05 2.6-.01 0-.03.01-.04.02-6.44-2.71-17.28-1.8-24.69 2.17-7.67 4.11-8.76 9.93-2.42 12.99l44.71 21.65c6.34 3.07 17.69 2.23 25.37-1.88 7.11-3.81 8.56-9.08 3.68-12.28Z"/><path fill="url(#b)" d="M124.83 83.463c5.73-3.62 6.24-8.36.92-10.94-2.4-1.16-5.6-1.69-9.02-1.65 3.82-4.67 2.81-9.65-3.46-12.68-8.76-4.24-24.45-3.08-35.05 2.6-.01 0-.03.01-.04.02-6.44-2.71-17.28-1.8-24.69 2.17-7.67 4.11-8.76 9.93-2.42 12.99l44.71 21.65c6.34 3.07 17.69 2.23 25.37-1.88 7.11-3.81 8.56-9.08 3.68-12.28Z"/></mask><g filter="url(#d)" mask="url(#c)"><ellipse cx="107" cy="87.502" fill="#DDA5FF" rx="9" ry="4.5"/></g><path stroke="#005DD0" stroke-linecap="round" stroke-linejoin="round" stroke-width="2" d="M124.83 83.463c5.73-3.62 6.24-8.36.92-10.94-2.4-1.16-5.6-1.69-9.02-1.65 3.82-4.67 2.81-9.65-3.46-12.68-8.76-4.24-24.45-3.08-35.05 2.6-.01 0-.03.01-.04.02-6.44-2.71-17.28-1.8-24.69 2.17-7.67 4.11-8.76 9.93-2.42 12.99l44.71 21.65c6.34 3.07 17.69 2.23 25.37-1.88 7.11-3.81 8.56-9.08 3.68-12.28Z"/><path fill="#fff" d="M115.81 37.582s46.03.34 46.37.26c3.38-.83 4.1-9.74 1.6-19.89-2.49-10.16-7.25-17.72-10.63-16.89-.34.08-40.98 21.71-40.98 21.71"/><path fill="url(#e)" d="M115.81 37.582s46.03.34 46.37.26c3.38-.83 4.1-9.74 1.6-19.89-2.49-10.16-7.25-17.72-10.63-16.89-.34.08-40.98 21.71-40.98 21.71"/><path fill="#fff" d="M115.24 37.772c1.43-1.29 2.62-4.4 1.89-8.12-.8-4.06-3.86-6.48-5.51-6.83"/><path stroke="#005DCF" stroke-linecap="round" stroke-linejoin="round" stroke-width="2" d="M115.24 37.772c1.43-1.29 2.62-4.4 1.89-8.12-.8-4.06-3.86-6.48-5.51-6.83"/><path fill="#fff" stroke="#005DCF" stroke-miterlimit="10" stroke-width="2" d="m111.213 22.582-3.077.763a.34.34 0 0 0-.248.412l3.705 14.947a.34.34 0 0 0 .411.248l3.077-.762a.339.339 0 0 0 .248-.412l-3.704-14.948a.34.34 0 0 0-.412-.248Z"/><path fill="#D7EBFF" stroke="#005DCF" stroke-linecap="round" stroke-linejoin="round" stroke-width="2" d="m111.07 36.592-1.33-5.39h-.01l-1.32-5.36a.344.344 0 0 0-.41-.25l-7.75 1.91c-.18.04-.29.23-.25.41l.29 1.19-20.09 4.96c-.18.04-.29.23-.25.41l.32 1.31-17.53 4.33c-.18.04-.29.23-.25.41l1.11 4.45c.04.18.23.29.41.25l17.53-4.33.32 1.31c.04.18.23.29.41.25l20.09-4.96.29 1.19c.04.18.23.29.41.25l7.75-1.91c.18-.04.29-.23.25-.41l.01-.02Z"/><path fill="#fff" stroke="#005DCF" stroke-miterlimit="10" stroke-width="2" d="m98.79 39.992-2.84-11.45a.344.344 0 0 0-.41-.25l-3.78.93c-.18.04-.29.23-.25.41l1.43 5.74 1.49 6.04 4.11-1.01c.18-.04.29-.23.25-.41Z"/><path fill="#fff" stroke="#005DCF" stroke-linecap="round" stroke-linejoin="round" stroke-width="2" d="m85.34 42.382-2.4-9.68a.29.29 0 0 0-.35-.21l-3.2.79a.29.29 0 0 0-.21.35l2.47 9.96 3.47-.86a.29.29 0 0 0 .21-.35h.01Z"/><path stroke="#005DCF" stroke-linecap="round" stroke-linejoin="round" stroke-width="2" d="M93.32 40.112v38.74M93.32 54.812l-12.27 20.8M93.32 54.812l12.27 20.8"/><path fill="#fff" stroke="#005DCF" stroke-miterlimit="10" stroke-width="2" d="M96.08 54.752a2.76 2.76 0 1 1-5.518.002 2.76 2.76 0 0 1 5.518-.002Z"/><defs><linearGradient id="a" x1="88.198" x2="88.198" y1="55.64" y2="99.471" gradientUnits="userSpaceOnUse"><stop stop-color="#227CE8" stop-opacity=".2"/><stop offset="1" stop-color="#227CE8" stop-opacity="0"/></linearGradient><linearGradient id="b" x1="88.198" x2="88.198" y1="55.64" y2="99.471" gradientUnits="userSpaceOnUse"><stop stop-color="#227CE8" stop-opacity=".2"/><stop offset="1" stop-color="#227CE8" stop-opacity="0"/></linearGradient><linearGradient id="e" x1="112" x2="165" y1="32.502" y2="16.502" gradientUnits="userSpaceOnUse"><stop stop-color="#227CE8" stop-opacity=".2"/><stop offset="1" stop-color="#227CE8" stop-opacity=".05"/></linearGradient><filter id="d" width="78" height="69" x="68" y="53.002" color-interpolation-filters="sRGB" filterUnits="userSpaceOnUse"><feFlood flood-opacity="0" result="BackgroundImageFix"/><feBlend in="SourceGraphic" in2="BackgroundImageFix" result="shape"/><feGaussianBlur result="effect1_foregroundBlur_3816_7265" stdDeviation="15"/></filter></defs></svg>